<?xml version="1.0" encoding="utf-8"?>
<!-- Generator: Adobe Illustrator 17.0.0, SVG Export Plug-In . SVG Version: 6.00 Build 0)  -->
<!DOCTYPE svg PUBLIC "-//W3C//DTD SVG 1.1//EN" "http://www.w3.org/Graphics/SVG/1.1/DTD/svg11.dtd">
<svg version="1.1" id="Layer_1" xmlns="http://www.w3.org/2000/svg" xmlns:xlink="http://www.w3.org/1999/xlink" x="0px" y="0px"
	 width="480px" height="480px" viewBox="0 0 480 480" enable-background="new 0 0 480 480" xml:space="preserve">
<g>
	<g>
		<g>
			<g>
				<polygon fill="#FFFFFF" points="129.4,49.127 19.192,240.16 129.409,431.052 151.009,393.647 62.382,240.151 151.005,86.537 
					187.393,86.54 187.393,49.131 				"/>
				<polygon fill="#FFFFFF" points="349.999,49.141 292.006,49.137 292.006,86.548 328.395,86.551 417.015,240.149 460.21,240.163 
									"/>
			</g>
			<rect x="220.969" y="49.052" fill="#FFFFFF" width="37.46" height="37.46"/>
			<rect x="220.969" y="161.187" fill="#FFFFFF" width="37.46" height="157.571"/>
			<polygon fill="#FFFFFF" points="417.015,240.149 328.4,393.624 151.009,393.646 129.409,431.052 349.986,431.038 460.21,240.162 
							"/>
		</g>
	</g>
	<g>
		<path fill="#FFFFFF" d="M401.859,48.976h23.82v3.758h-9.617v22.673h-4.586V52.734h-9.617V48.976z M456.06,75.407l-0.063-18.534
			l-9.936,15.413h-2.103l-9.999-15.095v18.215h-4.395V48.976h3.758l11.782,18.088l11.528-18.088h3.758l0.063,26.431H456.06z"/>
	</g>
</g>
</svg>
