<?xml version="1.0" encoding="utf-8"?>
<!-- Generator: Adobe Illustrator 17.0.0, SVG Export Plug-In . SVG Version: 6.00 Build 0)  -->
<!DOCTYPE svg PUBLIC "-//W3C//DTD SVG 1.1//EN" "http://www.w3.org/Graphics/SVG/1.1/DTD/svg11.dtd">
<svg version="1.1" id="Layer_1" xmlns="http://www.w3.org/2000/svg" xmlns:xlink="http://www.w3.org/1999/xlink" x="0px" y="0px"
	 width="480px" height="480px" viewBox="0 0 480 480" enable-background="new 0 0 480 480" xml:space="preserve">
<g>
	<g>
		<path fill="#66B5C5" d="M395.874,210.926c0-3.853-3.123-6.976-6.976-6.976h-24.242v13.952h24.242
			C392.75,217.902,395.874,214.778,395.874,210.926z"/>
		<path fill="#66B5C5" d="M395.873,270.571c0-3.853-3.123-6.976-6.976-6.976h-24.241v13.952h24.241
			C392.75,277.547,395.873,274.424,395.873,270.571z"/>
		<path fill="#66B5C5" d="M364.656,188.077h14.977c7.838,0,15.207-3.052,20.749-8.594l45.879-45.879
			c2.989,1.489,6.303,2.282,9.741,2.282c5.847,0,11.343-2.277,15.477-6.41c4.134-4.134,6.411-9.63,6.411-15.477
			c0-5.847-2.277-11.343-6.411-15.477c-4.134-4.134-9.63-6.411-15.477-6.411s-11.343,2.277-15.477,6.41
			c-4.135,4.134-6.411,9.63-6.411,15.477c0,3.438,0.793,6.752,2.282,9.741l-45.879,45.879c-2.906,2.907-6.772,4.508-10.884,4.508
			h-14.976V188.077z M450.39,108.387c1.499-1.499,3.492-2.324,5.611-2.324c2.12,0,4.112,0.825,5.612,2.324
			c1.499,1.499,2.324,3.492,2.324,5.611c0,2.12-0.825,4.112-2.324,5.611c-1.499,1.499-3.492,2.324-5.612,2.324
			c-2.12,0-4.112-0.825-5.611-2.324c-1.499-1.499-2.324-3.492-2.324-5.611C448.065,111.878,448.89,109.885,450.39,108.387z"/>
		<path fill="#66B5C5" d="M292.45,60.18v55.906h13.952V60.18c8.658-2.92,14.912-11.111,14.912-20.742
			c0-12.069-9.819-21.888-21.888-21.888s-21.888,9.819-21.888,21.888C277.539,49.068,283.793,57.259,292.45,60.18z"/>
		<path fill="#66B5C5" d="M441.089,278.508c-9.63,0-17.821,6.254-20.742,14.912h-55.691v13.952h55.691
			c2.92,8.657,11.111,14.912,20.742,14.912c12.069,0,21.888-9.818,21.888-21.888S453.157,278.508,441.089,278.508z"/>
		<path fill="#66B5C5" d="M276.579,116.086V91.63c0-3.852-3.123-6.976-6.976-6.976c-3.853,0-6.976,3.123-6.976,6.976v24.456H276.579
			z"/>
		<path fill="#66B5C5" d="M168.648,90.012c2.907,2.907,4.508,6.772,4.508,10.883v15.191h13.952v-15.191
			c0-7.838-3.053-15.207-8.595-20.749l-45.895-45.895c4.054-8.186,2.696-18.393-4.112-25.202c-8.535-8.534-22.42-8.533-30.954,0
			c-8.534,8.534-8.534,22.42,0,30.954c4.267,4.266,9.872,6.4,15.477,6.4c3.337,0,6.669-0.775,9.724-2.288L168.648,90.012z
			 M118.639,30.14c-3.094,3.093-8.128,3.094-11.224-0.001c-3.094-3.094-3.094-8.129,0-11.223c1.548-1.548,3.579-2.321,5.612-2.321
			c2.032,0,4.065,0.774,5.611,2.321C121.734,22.01,121.734,27.045,118.639,30.14z"/>
		<path fill="#66B5C5" d="M470.913,233.773H364.656v13.952h106.257c3.853,0,6.976-3.123,6.976-6.976
			C477.889,236.896,474.765,233.773,470.913,233.773z"/>
		<path fill="#66B5C5" d="M246.754,116.086V9.615c0-3.853-3.123-6.976-6.976-6.976c-3.853,0-6.976,3.123-6.976,6.976v106.471
			H246.754z"/>
		<path fill="#66B5C5" d="M216.931,116.086V91.63c0-3.852-3.123-6.976-6.976-6.976c-3.852,0-6.976,3.123-6.976,6.976v24.456H216.931
			z"/>
	</g>
	<g>
		<path fill="#66B5C5" d="M83.683,270.572c0,3.853,3.123,6.976,6.976,6.976h24.67v-13.952h-24.67
			C86.807,263.596,83.683,266.72,83.683,270.572z"/>
		<path fill="#66B5C5" d="M38.468,202.989c9.63,0,17.821-6.254,20.742-14.912h56.12v-13.952h-56.12
			c-2.92-8.658-11.111-14.912-20.742-14.912c-12.069,0-21.888,9.818-21.888,21.888C16.58,193.171,26.399,202.989,38.468,202.989z"/>
		<path fill="#66B5C5" d="M262.626,365.413v24.455c0,3.853,3.123,6.976,6.976,6.976c3.852,0,6.976-3.123,6.976-6.976v-24.455
			H262.626z"/>
		<path fill="#66B5C5" d="M8.644,247.725h106.685v-13.952H8.644c-3.853,0-6.976,3.123-6.976,6.976S4.792,247.725,8.644,247.725z"/>
		<path fill="#66B5C5" d="M83.683,210.926c0,3.852,3.123,6.976,6.976,6.976h24.67V203.95h-24.67
			C86.807,203.95,83.683,207.073,83.683,210.926z"/>
		<path fill="#66B5C5" d="M232.803,365.413v106.47c0,3.853,3.123,6.976,6.976,6.976c3.852,0,6.976-3.123,6.976-6.976v-106.47
			H232.803z"/>
		<path fill="#66B5C5" d="M202.98,365.413v24.453c0,3.853,3.123,6.976,6.976,6.976c3.853,0,6.976-3.123,6.976-6.976v-24.453H202.98z
			"/>
		<path fill="#66B5C5" d="M187.109,421.316v-55.903h-13.952v55.903c-8.657,2.92-14.912,11.111-14.912,20.742
			c0,12.069,9.819,21.888,21.888,21.888s21.888-9.819,21.888-21.888C202.02,432.428,195.766,424.237,187.109,421.316z"/>
		<path fill="#66B5C5" d="M382.007,441.495c-6.807-6.808-17.015-8.167-25.202-4.113l-45.895-45.896
			c-2.907-2.907-4.508-6.772-4.508-10.883v-15.189h-13.953v15.189c0,7.838,3.053,15.208,8.595,20.749l45.895,45.895
			c-4.054,8.186-2.696,18.393,4.113,25.201c4.267,4.267,9.872,6.4,15.477,6.4s11.211-2.133,15.477-6.4
			C390.54,463.914,390.54,450.028,382.007,441.495z M372.142,462.583c-3.094,3.094-8.129,3.094-11.224,0
			c-3.095-3.095-3.095-8.129,0-11.223c1.548-1.547,3.58-2.321,5.612-2.321c2.032,0,4.065,0.774,5.611,2.321
			C375.235,454.454,375.235,459.489,372.142,462.583z"/>
		<path fill="#66B5C5" d="M115.329,293.421H99.924c-7.838,0-15.207,3.052-20.749,8.594l-45.879,45.879
			c-2.989-1.489-6.303-2.282-9.741-2.282c-5.847,0-11.343,2.277-15.477,6.41c-4.133,4.134-6.41,9.631-6.41,15.477
			s2.277,11.343,6.411,15.477c4.134,4.134,9.63,6.41,15.477,6.41c5.847,0,11.343-2.277,15.477-6.41
			c4.134-4.134,6.411-9.63,6.411-15.477c0-3.438-0.792-6.752-2.282-9.741l45.879-45.879c2.907-2.906,6.772-4.508,10.884-4.508
			h15.402V293.421z M29.167,373.111c-1.499,1.499-3.492,2.324-5.611,2.324s-4.112-0.825-5.611-2.324
			c-1.499-1.499-2.324-3.492-2.324-5.611s0.825-4.112,2.324-5.611c1.499-1.499,3.492-2.324,5.611-2.324s4.112,0.825,5.611,2.324
			c1.499,1.499,2.324,3.492,2.324,5.611S30.667,371.613,29.167,373.111z"/>
	</g>
	<g>
		<path fill="#F69451" d="M228.296,194.618c-10.959,2.18-19,5.925-23.904,11.095c-4.212,4.522-7.466,9.849-9.567,15.661
			c-0.712,2.03-1.307,4.099-1.782,6.197c-0.196,0.791-0.063,1.627,0.366,2.319c0.43,0.692,1.121,1.181,1.917,1.356
			c1.609,0.353,3.204-0.65,3.585-2.253c0.421-1.876,0.949-3.726,1.582-5.541c1.818-5.042,4.637-9.664,8.286-13.589
			c4.026-4.252,10.989-7.389,20.695-9.319c1.636-0.325,2.699-1.915,2.373-3.551C231.522,195.355,229.932,194.292,228.296,194.618z"
			/>
		<circle fill="#F69451" cx="191.621" cy="241.914" r="3.02"/>
		<path fill="#F69451" d="M312.382,130.077h-144.78c-20.649,0-37.388,16.739-37.388,37.388v144.78
			c0,20.649,16.739,37.388,37.388,37.388h62.737c-1.333-4.52-5.907-17.846-14.467-21.716c-8.626,3.118-17.416,5.765-26.33,7.93
			c-4.322,0.921-8.6-1.736-9.691-6.018c-0.809-2.141-1.107-4.442-0.87-6.719c0.7-2.327,0.942-4.768,0.713-7.187
			c-0.783-3.053-3.702-3.805-6-5.436c-1.848-1.311,1.491-5.581,1.491-5.581s-3.518-2.655-4.832-3.76s0.538-2.983,2.21-6.508
			c0.69-1.531,0.888-3.238,0.568-4.886c-0.613-3.237-5.532-4.463-7.948-6.257c-1.132-0.843-2.968-2.114-3.192-3.645
			c-0.314-2.156,2.214-5.161,3.455-6.686c5.266-6.786,9.776-14.126,13.45-21.891c0.497-0.815,0.79-1.738,0.854-2.691
			c-0.048-4.315-6.311-6.106-6.897-10.285c-0.086-1.234,0.136-2.47,0.646-3.597c1.737-3.699,3.229-7.508,4.466-11.403
			c0.734-3.58,1.695-7.11,2.875-10.569c2.518-6.953,6.422-13.323,11.475-18.723c7.407-7.821,18.336-11.681,28.658-13.758
			c9.477-2.076,19.094-3.457,28.773-4.131c19.342-0.985,34.622,5.581,49.576,17.322c8.176,6.07,14.149,14.642,17.011,24.415
			c2.189,8.067,3.216,16.405,3.047,24.762c-0.064,8.25-2.465,16.312-6.925,23.252c-4.508,7.106-10.418,13.254-13.822,21.015
			c-3.86,8.825-5.302,18.518-4.176,28.084c0.668,6.226,1.895,12.379,3.67,18.384c0.963,3.113,2.168,6.146,3.602,9.072
			c1.522,2.319,2.883,4.736,4.137,7.209h6.514c20.649,0,37.388-16.739,37.388-37.388v-144.78
			C349.771,146.816,333.032,130.077,312.382,130.077z"/>
	</g>
</g>
</svg>
