<?xml version="1.0" encoding="utf-8"?>
<!-- Generator: Adobe Illustrator 17.0.0, SVG Export Plug-In . SVG Version: 6.00 Build 0)  -->
<!DOCTYPE svg PUBLIC "-//W3C//DTD SVG 1.1//EN" "http://www.w3.org/Graphics/SVG/1.1/DTD/svg11.dtd">
<svg version="1.1" id="Layer_1" xmlns="http://www.w3.org/2000/svg" xmlns:xlink="http://www.w3.org/1999/xlink" x="0px" y="0px"
	 width="480px" height="480px" viewBox="0 0 480 480" enable-background="new 0 0 480 480" xml:space="preserve">
<g>
	<g>
		<g>
			<path fill="#66B5C5" d="M240.44,273.255V92.025h-50.865c-24.556,0-44.632,19.978-44.756,44.531l-0.7,138.943
				c-0.052,10.445,8.373,18.955,18.816,19.008c0.032,0,0.065,0,0.098,0c10.401,0,18.856-8.406,18.911-18.816l0.699-123.527
				c0-0.016,0-0.031,0-0.047c0.024-2.063,1.71-3.72,3.773-3.708s3.729,1.689,3.729,3.752l0.008,302.51
				c0,12.534,10.161,22.696,22.696,22.696c12.534,0,22.696-10.161,22.696-22.696V273.27L240.44,273.255z"/>
		</g>
	</g>
	<g>
		<g>
			<path fill="#66B5C5" d="M240.44,79.529c-21.645,0-39.191-17.547-39.191-39.191S218.796,1.146,240.44,1.146"/>
		</g>
	</g>
	<g>
		<g>
			<g>
				<path fill="#F69451" d="M244.437,1.62v7.748h-2.611V3.59h-1.328V1.62H244.437z"/>
				<path fill="#F69451" d="M240.762,16.569c0-2.568,1.461-4.051,3.509-4.051s3.509,1.483,3.509,4.051s-1.461,4.05-3.509,4.05
					S240.762,19.137,240.762,16.569z M245.156,16.569c0-1.494-0.376-1.959-0.886-1.959c-0.51,0-0.886,0.465-0.886,1.959
					s0.376,1.959,0.886,1.959C244.78,18.528,245.156,18.063,245.156,16.569z"/>
				<path fill="#F69451" d="M252.229,12.695v7.748h-2.611v-5.778h-1.328v-1.97H252.229z"/>
				<path fill="#F69451" d="M253.421,16.569c0-2.568,1.461-4.051,3.509-4.051c2.048,0,3.509,1.483,3.509,4.051
					s-1.461,4.05-3.509,4.05C254.882,20.619,253.421,19.137,253.421,16.569z M257.816,16.569c0-1.494-0.376-1.959-0.886-1.959
					c-0.51,0-0.886,0.465-0.886,1.959s0.376,1.959,0.886,1.959C257.44,18.528,257.816,18.063,257.816,16.569z"/>
				<path fill="#F69451" d="M261.323,16.569c0-2.568,1.461-4.051,3.509-4.051s3.509,1.483,3.509,4.051s-1.461,4.05-3.509,4.05
					S261.323,19.137,261.323,16.569z M265.718,16.569c0-1.494-0.376-1.959-0.886-1.959s-0.886,0.465-0.886,1.959
					s0.376,1.959,0.886,1.959S265.718,18.063,265.718,16.569z"/>
				<path fill="#F69451" d="M244.437,23.771v7.748h-2.611v-5.778h-1.328v-1.97H244.437z"/>
				<path fill="#F69451" d="M245.782,27.645c0-2.568,1.461-4.051,3.509-4.051s3.509,1.483,3.509,4.051s-1.461,4.051-3.509,4.051
					S245.782,30.213,245.782,27.645z M250.177,27.645c0-1.494-0.376-1.959-0.886-1.959c-0.51,0-0.886,0.465-0.886,1.959
					c0,1.494,0.376,1.959,0.886,1.959C249.8,29.604,250.177,29.139,250.177,27.645z"/>
				<path fill="#F69451" d="M253.834,27.645c0-2.568,1.461-4.051,3.509-4.051s3.509,1.483,3.509,4.051s-1.461,4.051-3.509,4.051
					S253.834,30.213,253.834,27.645z M258.229,27.645c0-1.494-0.376-1.959-0.886-1.959c-0.51,0-0.886,0.465-0.886,1.959
					c0,1.494,0.376,1.959,0.886,1.959C257.853,29.604,258.229,29.139,258.229,27.645z"/>
				<path fill="#F69451" d="M265.454,23.771v7.748h-2.611v-5.778h-1.328v-1.97H265.454z"/>
				<path fill="#F69451" d="M270.472,23.771v7.748h-2.611v-5.778h-1.328v-1.97H270.472z"/>
				<path fill="#F69451" d="M275.493,23.771v7.748h-2.611v-5.778h-1.328v-1.97H275.493z"/>
				<path fill="#F69451" d="M240.762,38.721c0-2.568,1.461-4.051,3.509-4.051s3.509,1.483,3.509,4.051s-1.461,4.05-3.509,4.05
					S240.762,41.289,240.762,38.721z M245.156,38.721c0-1.494-0.376-1.959-0.886-1.959c-0.51,0-0.886,0.465-0.886,1.959
					s0.376,1.959,0.886,1.959C244.78,40.68,245.156,40.215,245.156,38.721z"/>
				<path fill="#F69451" d="M252.939,34.847v7.748h-2.611v-5.778h-1.328v-1.97H252.939z"/>
				<path fill="#F69451" d="M254.84,38.721c0-2.568,1.461-4.051,3.509-4.051s3.509,1.483,3.509,4.051s-1.461,4.05-3.509,4.05
					S254.84,41.289,254.84,38.721z M259.235,38.721c0-1.494-0.376-1.959-0.886-1.959s-0.886,0.465-0.886,1.959
					s0.376,1.959,0.886,1.959S259.235,40.215,259.235,38.721z"/>
				<path fill="#F69451" d="M263.452,38.721c0-2.568,1.461-4.051,3.509-4.051c2.048,0,3.509,1.483,3.509,4.051
					s-1.461,4.05-3.509,4.05C264.913,42.772,263.452,41.289,263.452,38.721z M267.847,38.721c0-1.494-0.376-1.959-0.886-1.959
					c-0.51,0-0.886,0.465-0.886,1.959s0.376,1.959,0.886,1.959C267.471,40.68,267.847,40.215,267.847,38.721z"/>
				<path fill="#F69451" d="M272.065,38.721c0-2.568,1.461-4.051,3.509-4.051s3.509,1.483,3.509,4.051s-1.461,4.05-3.509,4.05
					S272.065,41.289,272.065,38.721z M276.46,38.721c0-1.494-0.376-1.959-0.886-1.959s-0.886,0.465-0.886,1.959
					s0.376,1.959,0.886,1.959S276.46,40.215,276.46,38.721z"/>
				<path fill="#F69451" d="M244.437,45.924v7.748h-2.611v-5.778h-1.328v-1.97H244.437z"/>
				<path fill="#F69451" d="M249.692,45.924v7.748h-2.611v-5.778h-1.328v-1.97H249.692z"/>
				<path fill="#F69451" d="M254.948,45.924v7.748h-2.611v-5.778h-1.328v-1.97H254.948z"/>
				<path fill="#F69451" d="M256.531,49.797c0-2.568,1.461-4.051,3.509-4.051c2.048,0,3.509,1.483,3.509,4.051
					s-1.461,4.051-3.509,4.051C257.992,53.849,256.531,52.365,256.531,49.797z M260.926,49.797c0-1.494-0.376-1.959-0.886-1.959
					c-0.51,0-0.886,0.465-0.886,1.959s0.376,1.959,0.886,1.959C260.549,51.756,260.926,51.291,260.926,49.797z"/>
				<path fill="#F69451" d="M268.386,45.924v7.748h-2.612v-5.778h-1.328v-1.97H268.386z"/>
				<path fill="#F69451" d="M269.967,49.797c0-2.568,1.461-4.051,3.509-4.051s3.509,1.483,3.509,4.051s-1.461,4.051-3.509,4.051
					S269.967,52.365,269.967,49.797z M274.362,49.797c0-1.494-0.376-1.959-0.886-1.959s-0.886,0.465-0.886,1.959
					s0.376,1.959,0.886,1.959S274.362,51.291,274.362,49.797z"/>
				<path fill="#F69451" d="M240.762,60.872c0-2.568,1.461-4.051,3.509-4.051s3.509,1.483,3.509,4.051s-1.461,4.051-3.509,4.051
					S240.762,63.441,240.762,60.872z M245.156,60.872c0-1.494-0.376-1.959-0.886-1.959c-0.51,0-0.886,0.465-0.886,1.959
					s0.376,1.959,0.886,1.959C244.78,62.832,245.156,62.366,245.156,60.872z"/>
				<path fill="#F69451" d="M248.816,60.872c0-2.568,1.461-4.051,3.509-4.051s3.509,1.483,3.509,4.051s-1.461,4.051-3.509,4.051
					S248.816,63.441,248.816,60.872z M253.211,60.872c0-1.494-0.376-1.959-0.886-1.959c-0.51,0-0.886,0.465-0.886,1.959
					s0.376,1.959,0.886,1.959C252.835,62.832,253.211,62.366,253.211,60.872z"/>
				<path fill="#F69451" d="M260.437,56.999v7.748h-2.611v-5.778h-1.328v-1.97H260.437z"/>
				<path fill="#F69451" d="M265.458,56.999v7.748h-2.611v-5.778h-1.328v-1.97H265.458z"/>
				<path fill="#F69451" d="M270.48,56.999v7.748h-2.612v-5.778h-1.328v-1.97H270.48z"/>
				<path fill="#F69451" d="M244.437,68.075v7.748h-2.611v-5.778h-1.328v-1.97H244.437z"/>
				<path fill="#F69451" d="M250.462,68.075v7.748h-2.611v-5.778h-1.328v-1.97H250.462z"/>
				<path fill="#F69451" d="M256.486,68.075v7.748h-2.611v-5.778h-1.328v-1.97H256.486z"/>
			</g>
		</g>
	</g>
	<g>
		<g>
			<g>
				<path fill="#F69451" d="M240.76,96.371c0-2.568,1.461-4.051,3.509-4.051c2.048,0,3.509,1.483,3.509,4.051
					c0,2.568-1.461,4.05-3.509,4.05C242.221,100.421,240.76,98.939,240.76,96.371z M245.155,96.371c0-1.494-0.376-1.959-0.886-1.959
					c-0.51,0-0.886,0.465-0.886,1.959s0.376,1.959,0.886,1.959C244.778,98.33,245.155,97.865,245.155,96.371z"/>
				<path fill="#F69451" d="M252.36,92.497v7.748h-2.611v-5.778h-1.328v-1.97H252.36z"/>
				<path fill="#F69451" d="M253.686,96.371c0-2.568,1.461-4.051,3.509-4.051s3.509,1.483,3.509,4.051
					c0,2.568-1.461,4.05-3.509,4.05S253.686,98.939,253.686,96.371z M258.081,96.371c0-1.494-0.376-1.959-0.886-1.959
					s-0.886,0.465-0.886,1.959s0.376,1.959,0.886,1.959S258.081,97.865,258.081,96.371z"/>
				<path fill="#F69451" d="M261.721,96.371c0-2.568,1.461-4.051,3.509-4.051s3.509,1.483,3.509,4.051
					c0,2.568-1.461,4.05-3.509,4.05S261.721,98.939,261.721,96.371z M266.116,96.371c0-1.494-0.376-1.959-0.886-1.959
					s-0.886,0.465-0.886,1.959s0.376,1.959,0.886,1.959S266.116,97.865,266.116,96.371z"/>
				<path fill="#F69451" d="M273.319,92.497v7.748h-2.611v-5.778h-1.328v-1.97H273.319z"/>
				<path fill="#F69451" d="M278.32,92.497v7.748h-2.611v-5.778h-1.328v-1.97H278.32z"/>
				<path fill="#F69451" d="M279.646,96.371c0-2.568,1.461-4.051,3.509-4.051s3.509,1.483,3.509,4.051
					c0,2.568-1.461,4.05-3.509,4.05S279.646,98.939,279.646,96.371z M284.041,96.371c0-1.494-0.376-1.959-0.886-1.959
					s-0.886,0.465-0.886,1.959s0.376,1.959,0.886,1.959S284.041,97.865,284.041,96.371z"/>
				<path fill="#F69451" d="M291.246,92.497v7.748h-2.611v-5.778h-1.328v-1.97H291.246z"/>
				<path fill="#F69451" d="M292.572,96.371c0-2.568,1.461-4.051,3.509-4.051s3.509,1.483,3.509,4.051
					c0,2.568-1.461,4.05-3.509,4.05S292.572,98.939,292.572,96.371z M296.967,96.371c0-1.494-0.376-1.959-0.886-1.959
					s-0.886,0.465-0.886,1.959s0.376,1.959,0.886,1.959S296.967,97.865,296.967,96.371z"/>
				<path fill="#F69451" d="M244.435,103.572v7.748h-2.611v-5.778h-1.328v-1.97H244.435z"/>
				<path fill="#F69451" d="M249.316,103.572v7.748h-2.611v-5.778h-1.328v-1.97H249.316z"/>
				<path fill="#F69451" d="M254.197,103.572v7.748h-2.611v-5.778h-1.328v-1.97H254.197z"/>
				<path fill="#F69451" d="M259.079,103.572v7.748h-2.611v-5.778h-1.328v-1.97H259.079z"/>
				<path fill="#F69451" d="M263.96,103.572v7.748h-2.611v-5.778h-1.328v-1.97H263.96z"/>
				<path fill="#F69451" d="M265.166,107.446c0-2.568,1.461-4.051,3.509-4.051s3.509,1.483,3.509,4.051s-1.461,4.05-3.509,4.05
					S265.166,110.014,265.166,107.446z M269.561,107.446c0-1.494-0.376-1.959-0.886-1.959s-0.886,0.465-0.886,1.959
					s0.376,1.959,0.886,1.959S269.561,108.94,269.561,107.446z"/>
				<path fill="#F69451" d="M273.082,107.446c0-2.568,1.461-4.051,3.509-4.051s3.509,1.483,3.509,4.051s-1.461,4.05-3.509,4.05
					S273.082,110.014,273.082,107.446z M277.477,107.446c0-1.494-0.376-1.959-0.886-1.959s-0.886,0.465-0.886,1.959
					s0.376,1.959,0.886,1.959S277.477,108.94,277.477,107.446z"/>
				<path fill="#F69451" d="M284.564,103.572v7.748h-2.612v-5.778h-1.328v-1.97H284.564z"/>
				<path fill="#F69451" d="M285.771,107.446c0-2.568,1.461-4.051,3.509-4.051s3.509,1.483,3.509,4.051s-1.461,4.05-3.509,4.05
					S285.771,110.014,285.771,107.446z M290.166,107.446c0-1.494-0.376-1.959-0.886-1.959s-0.886,0.465-0.886,1.959
					s0.376,1.959,0.886,1.959S290.166,108.94,290.166,107.446z"/>
				<path fill="#F69451" d="M293.686,107.446c0-2.568,1.461-4.051,3.509-4.051s3.509,1.483,3.509,4.051s-1.461,4.05-3.509,4.05
					S293.686,110.014,293.686,107.446z M298.081,107.446c0-1.494-0.376-1.959-0.886-1.959c-0.51,0-0.886,0.465-0.886,1.959
					s0.376,1.959,0.886,1.959C297.705,109.405,298.081,108.94,298.081,107.446z"/>
				<path fill="#F69451" d="M305.165,103.572v7.748h-2.611v-5.778h-1.328v-1.97H305.165z"/>
				<path fill="#F69451" d="M306.371,107.446c0-2.568,1.461-4.051,3.509-4.051s3.509,1.483,3.509,4.051s-1.461,4.05-3.509,4.05
					S306.371,110.014,306.371,107.446z M310.766,107.446c0-1.494-0.376-1.959-0.886-1.959s-0.886,0.465-0.886,1.959
					s0.376,1.959,0.886,1.959S310.766,108.94,310.766,107.446z"/>
				<path fill="#F69451" d="M314.287,107.446c0-2.568,1.461-4.051,3.509-4.051s3.509,1.483,3.509,4.051s-1.461,4.05-3.509,4.05
					S314.287,110.014,314.287,107.446z M318.682,107.446c0-1.494-0.376-1.959-0.886-1.959s-0.886,0.465-0.886,1.959
					s0.376,1.959,0.886,1.959S318.682,108.94,318.682,107.446z"/>
				<path fill="#F69451" d="M240.76,118.522c0-2.568,1.461-4.051,3.509-4.051c2.048,0,3.509,1.483,3.509,4.051
					s-1.461,4.051-3.509,4.051C242.221,122.574,240.76,121.09,240.76,118.522z M245.155,118.522c0-1.494-0.376-1.959-0.886-1.959
					c-0.51,0-0.886,0.465-0.886,1.959s0.376,1.959,0.886,1.959C244.778,120.481,245.155,120.016,245.155,118.522z"/>
				<path fill="#F69451" d="M248.654,118.522c0-2.568,1.461-4.051,3.509-4.051c2.048,0,3.509,1.483,3.509,4.051
					s-1.461,4.051-3.509,4.051C250.115,122.574,248.654,121.09,248.654,118.522z M253.049,118.522c0-1.494-0.376-1.959-0.886-1.959
					c-0.51,0-0.886,0.465-0.886,1.959s0.376,1.959,0.886,1.959C252.672,120.481,253.049,120.016,253.049,118.522z"/>
				<path fill="#F69451" d="M256.55,118.522c0-2.568,1.461-4.051,3.509-4.051s3.509,1.483,3.509,4.051s-1.461,4.051-3.509,4.051
					S256.55,121.09,256.55,118.522z M260.945,118.522c0-1.494-0.376-1.959-0.886-1.959s-0.886,0.465-0.886,1.959
					s0.376,1.959,0.886,1.959S260.945,120.016,260.945,118.522z"/>
				<path fill="#F69451" d="M264.444,118.522c0-2.568,1.461-4.051,3.509-4.051s3.509,1.483,3.509,4.051s-1.461,4.051-3.509,4.051
					S264.444,121.09,264.444,118.522z M268.839,118.522c0-1.494-0.376-1.959-0.886-1.959c-0.51,0-0.886,0.465-0.886,1.959
					s0.376,1.959,0.886,1.959C268.463,120.481,268.839,120.016,268.839,118.522z"/>
				<path fill="#F69451" d="M275.906,114.648v7.748h-2.611v-5.778h-1.328v-1.97H275.906z"/>
				<path fill="#F69451" d="M280.766,114.648v7.748h-2.611v-5.778h-1.328v-1.97H280.766z"/>
				<path fill="#F69451" d="M281.951,118.522c0-2.568,1.461-4.051,3.509-4.051s3.509,1.483,3.509,4.051s-1.461,4.051-3.509,4.051
					S281.951,121.09,281.951,118.522z M286.346,118.522c0-1.494-0.376-1.959-0.886-1.959s-0.886,0.465-0.886,1.959
					s0.376,1.959,0.886,1.959S286.346,120.016,286.346,118.522z"/>
				<path fill="#F69451" d="M289.847,118.522c0-2.568,1.461-4.051,3.509-4.051s3.509,1.483,3.509,4.051s-1.461,4.051-3.509,4.051
					S289.847,121.09,289.847,118.522z M294.242,118.522c0-1.494-0.376-1.959-0.886-1.959s-0.886,0.465-0.886,1.959
					s0.376,1.959,0.886,1.959S294.242,120.016,294.242,118.522z"/>
				<path fill="#F69451" d="M301.304,114.648v7.748h-2.611v-5.778h-1.328v-1.97H301.304z"/>
				<path fill="#F69451" d="M302.49,118.522c0-2.568,1.461-4.051,3.509-4.051s3.509,1.483,3.509,4.051s-1.461,4.051-3.509,4.051
					S302.49,121.09,302.49,118.522z M306.885,118.522c0-1.494-0.376-1.959-0.886-1.959s-0.886,0.465-0.886,1.959
					s0.376,1.959,0.886,1.959S306.885,120.016,306.885,118.522z"/>
				<path fill="#F69451" d="M310.386,118.522c0-2.568,1.461-4.051,3.509-4.051s3.509,1.483,3.509,4.051s-1.461,4.051-3.509,4.051
					S310.386,121.09,310.386,118.522z M314.781,118.522c0-1.494-0.376-1.959-0.886-1.959s-0.886,0.465-0.886,1.959
					s0.376,1.959,0.886,1.959S314.781,120.016,314.781,118.522z"/>
				<path fill="#F69451" d="M318.28,118.522c0-2.568,1.461-4.051,3.509-4.051s3.509,1.483,3.509,4.051s-1.461,4.051-3.509,4.051
					S318.28,121.09,318.28,118.522z M322.675,118.522c0-1.494-0.376-1.959-0.886-1.959c-0.51,0-0.886,0.465-0.886,1.959
					s0.376,1.959,0.886,1.959C322.299,120.481,322.675,120.016,322.675,118.522z"/>
				<path fill="#F69451" d="M329.741,114.648v7.748h-2.611v-5.778h-1.328v-1.97H329.741z"/>
				<path fill="#F69451" d="M244.435,125.724v7.748h-2.611v-5.778h-1.328v-1.97H244.435z"/>
				<path fill="#F69451" d="M245.819,129.598c0-2.568,1.461-4.051,3.509-4.051c2.048,0,3.509,1.483,3.509,4.051
					c0,2.568-1.461,4.05-3.509,4.05C247.28,133.649,245.819,132.166,245.819,129.598z M250.213,129.598
					c0-1.494-0.376-1.959-0.886-1.959c-0.51,0-0.886,0.465-0.886,1.959c0,1.494,0.376,1.959,0.886,1.959
					C249.837,131.557,250.213,131.092,250.213,129.598z"/>
				<path fill="#F69451" d="M253.91,129.598c0-2.568,1.461-4.051,3.509-4.051s3.509,1.483,3.509,4.051
					c0,2.568-1.461,4.05-3.509,4.05S253.91,132.166,253.91,129.598z M258.305,129.598c0-1.494-0.376-1.959-0.886-1.959
					s-0.886,0.465-0.886,1.959c0,1.494,0.376,1.959,0.886,1.959S258.305,131.092,258.305,129.598z"/>
				<path fill="#F69451" d="M262.003,129.598c0-2.568,1.461-4.051,3.509-4.051s3.509,1.483,3.509,4.051
					c0,2.568-1.461,4.05-3.509,4.05S262.003,132.166,262.003,129.598z M266.398,129.598c0-1.494-0.376-1.959-0.886-1.959
					s-0.886,0.465-0.886,1.959c0,1.494,0.376,1.959,0.886,1.959S266.398,131.092,266.398,129.598z"/>
				<path fill="#F69451" d="M270.094,129.598c0-2.568,1.461-4.051,3.509-4.051c2.048,0,3.509,1.483,3.509,4.051
					c0,2.568-1.461,4.05-3.509,4.05C271.555,133.649,270.094,132.166,270.094,129.598z M274.489,129.598
					c0-1.494-0.376-1.959-0.886-1.959c-0.51,0-0.886,0.465-0.886,1.959c0,1.494,0.376,1.959,0.886,1.959
					C274.113,131.557,274.489,131.092,274.489,129.598z"/>
				<path fill="#F69451" d="M281.752,125.724v7.748h-2.612v-5.778h-1.328v-1.97H281.752z"/>
				<path fill="#F69451" d="M283.134,129.598c0-2.568,1.461-4.051,3.509-4.051s3.509,1.483,3.509,4.051
					c0,2.568-1.461,4.05-3.509,4.05S283.134,132.166,283.134,129.598z M287.529,129.598c0-1.494-0.376-1.959-0.886-1.959
					c-0.51,0-0.886,0.465-0.886,1.959c0,1.494,0.376,1.959,0.886,1.959C287.153,131.557,287.529,131.092,287.529,129.598z"/>
				<path fill="#F69451" d="M294.79,125.724v7.748h-2.611v-5.778h-1.328v-1.97H294.79z"/>
				<path fill="#F69451" d="M299.847,125.724v7.748h-2.612v-5.778h-1.328v-1.97H299.847z"/>
				<path fill="#F69451" d="M304.906,125.724v7.748h-2.611v-5.778h-1.328v-1.97H304.906z"/>
				<path fill="#F69451" d="M306.29,129.598c0-2.568,1.461-4.051,3.509-4.051c2.048,0,3.509,1.483,3.509,4.051
					c0,2.568-1.461,4.05-3.509,4.05C307.751,133.649,306.29,132.166,306.29,129.598z M310.685,129.598
					c0-1.494-0.376-1.959-0.886-1.959c-0.51,0-0.886,0.465-0.886,1.959c0,1.494,0.376,1.959,0.886,1.959
					C310.309,131.557,310.685,131.092,310.685,129.598z"/>
				<path fill="#F69451" d="M317.946,125.724v7.748h-2.611v-5.778h-1.328v-1.97H317.946z"/>
				<path fill="#F69451" d="M319.33,129.598c0-2.568,1.461-4.051,3.509-4.051s3.509,1.483,3.509,4.051
					c0,2.568-1.461,4.05-3.509,4.05S319.33,132.166,319.33,129.598z M323.725,129.598c0-1.494-0.376-1.959-0.886-1.959
					s-0.886,0.465-0.886,1.959c0,1.494,0.376,1.959,0.886,1.959S323.725,131.092,323.725,129.598z"/>
				<path fill="#F69451" d="M327.421,129.598c0-2.568,1.461-4.051,3.509-4.051c2.048,0,3.509,1.483,3.509,4.051
					c0,2.568-1.461,4.05-3.509,4.05C328.882,133.649,327.421,132.166,327.421,129.598z M331.816,129.598
					c0-1.494-0.376-1.959-0.886-1.959c-0.51,0-0.886,0.465-0.886,1.959c0,1.494,0.376,1.959,0.886,1.959
					C331.44,131.557,331.816,131.092,331.816,129.598z"/>
				<path fill="#F69451" d="M240.76,140.674c0-2.568,1.461-4.051,3.509-4.051c2.048,0,3.509,1.483,3.509,4.051
					s-1.461,4.051-3.509,4.051C242.221,144.726,240.76,143.242,240.76,140.674z M245.155,140.674c0-1.494-0.376-1.959-0.886-1.959
					c-0.51,0-0.886,0.465-0.886,1.959s0.376,1.959,0.886,1.959C244.778,142.634,245.155,142.168,245.155,140.674z"/>
				<path fill="#F69451" d="M252.285,136.801v7.748h-2.611v-5.778h-1.328v-1.97H252.285z"/>
				<path fill="#F69451" d="M257.208,136.801v7.748h-2.611v-5.778h-1.328v-1.97H257.208z"/>
				<path fill="#F69451" d="M258.459,140.674c0-2.568,1.461-4.051,3.509-4.051s3.509,1.483,3.509,4.051s-1.461,4.051-3.509,4.051
					S258.459,143.242,258.459,140.674z M262.854,140.674c0-1.494-0.376-1.959-0.886-1.959s-0.886,0.465-0.886,1.959
					s0.376,1.959,0.886,1.959S262.854,142.168,262.854,140.674z"/>
				<path fill="#F69451" d="M266.417,140.674c0-2.568,1.461-4.051,3.509-4.051s3.509,1.483,3.509,4.051s-1.461,4.051-3.509,4.051
					S266.417,143.242,266.417,140.674z M270.812,140.674c0-1.494-0.376-1.959-0.886-1.959s-0.886,0.465-0.886,1.959
					s0.376,1.959,0.886,1.959S270.812,142.168,270.812,140.674z"/>
				<path fill="#F69451" d="M277.94,136.801v7.748h-2.612v-5.778h-1.328v-1.97H277.94z"/>
				<path fill="#F69451" d="M279.191,140.674c0-2.568,1.461-4.051,3.509-4.051s3.509,1.483,3.509,4.051s-1.461,4.051-3.509,4.051
					S279.191,143.242,279.191,140.674z M283.586,140.674c0-1.494-0.376-1.959-0.886-1.959s-0.886,0.465-0.886,1.959
					s0.376,1.959,0.886,1.959S283.586,142.168,283.586,140.674z"/>
				<path fill="#F69451" d="M287.149,140.674c0-2.568,1.461-4.051,3.509-4.051c2.048,0,3.509,1.483,3.509,4.051
					s-1.461,4.051-3.509,4.051C288.61,144.726,287.149,143.242,287.149,140.674z M291.544,140.674c0-1.494-0.376-1.959-0.886-1.959
					c-0.51,0-0.886,0.465-0.886,1.959s0.376,1.959,0.886,1.959C291.167,142.634,291.544,142.168,291.544,140.674z"/>
				<path fill="#F69451" d="M295.109,140.674c0-2.568,1.461-4.051,3.509-4.051c2.048,0,3.509,1.483,3.509,4.051
					s-1.461,4.051-3.509,4.051C296.57,144.726,295.109,143.242,295.109,140.674z M299.504,140.674c0-1.494-0.376-1.959-0.886-1.959
					c-0.51,0-0.886,0.465-0.886,1.959s0.376,1.959,0.886,1.959C299.127,142.634,299.504,142.168,299.504,140.674z"/>
				<path fill="#F69451" d="M306.634,136.801v7.748h-2.611v-5.778h-1.328v-1.97H306.634z"/>
				<path fill="#F69451" d="M311.557,136.801v7.748h-2.612v-5.778h-1.328v-1.97H311.557z"/>
				<path fill="#F69451" d="M312.808,140.674c0-2.568,1.461-4.051,3.509-4.051s3.509,1.483,3.509,4.051s-1.461,4.051-3.509,4.051
					S312.808,143.242,312.808,140.674z M317.203,140.674c0-1.494-0.376-1.959-0.886-1.959s-0.886,0.465-0.886,1.959
					s0.376,1.959,0.886,1.959S317.203,142.168,317.203,140.674z"/>
				<path fill="#F69451" d="M320.766,140.674c0-2.568,1.461-4.051,3.509-4.051c2.048,0,3.509,1.483,3.509,4.051
					s-1.461,4.051-3.509,4.051C322.227,144.726,320.766,143.242,320.766,140.674z M325.161,140.674c0-1.494-0.376-1.959-0.886-1.959
					c-0.51,0-0.886,0.465-0.886,1.959s0.376,1.959,0.886,1.959C324.785,142.634,325.161,142.168,325.161,140.674z"/>
				<path fill="#F69451" d="M328.726,140.674c0-2.568,1.461-4.051,3.509-4.051c2.048,0,3.509,1.483,3.509,4.051
					s-1.461,4.051-3.509,4.051C330.187,144.726,328.726,143.242,328.726,140.674z M333.121,140.674c0-1.494-0.376-1.959-0.886-1.959
					c-0.51,0-0.886,0.465-0.886,1.959s0.376,1.959,0.886,1.959C332.745,142.634,333.121,142.168,333.121,140.674z"/>
				<path fill="#F69451" d="M240.76,151.75c0-2.568,1.461-4.051,3.509-4.051c2.048,0,3.509,1.483,3.509,4.051
					c0,2.568-1.461,4.051-3.509,4.051C242.221,155.801,240.76,154.318,240.76,151.75z M245.155,151.75
					c0-1.494-0.376-1.959-0.886-1.959c-0.51,0-0.886,0.465-0.886,1.959c0,1.494,0.376,1.959,0.886,1.959
					C244.778,153.709,245.155,153.244,245.155,151.75z"/>
				<path fill="#F69451" d="M252.63,147.876v7.748h-2.611v-5.778h-1.328v-1.97H252.63z"/>
				<path fill="#F69451" d="M254.226,151.75c0-2.568,1.461-4.051,3.509-4.051c2.048,0,3.509,1.483,3.509,4.051
					c0,2.568-1.461,4.051-3.509,4.051C255.687,155.801,254.226,154.318,254.226,151.75z M258.621,151.75
					c0-1.494-0.376-1.959-0.886-1.959c-0.51,0-0.886,0.465-0.886,1.959c0,1.494,0.376,1.959,0.886,1.959
					C258.245,153.709,258.621,153.244,258.621,151.75z"/>
				<path fill="#F69451" d="M266.097,147.876v7.748h-2.612v-5.778h-1.328v-1.97H266.097z"/>
				<path fill="#F69451" d="M271.368,147.876v7.748h-2.611v-5.778h-1.328v-1.97H271.368z"/>
				<path fill="#F69451" d="M276.639,147.876v7.748h-2.611v-5.778H272.7v-1.97H276.639z"/>
				<path fill="#F69451" d="M278.235,151.75c0-2.568,1.461-4.051,3.509-4.051c2.048,0,3.509,1.483,3.509,4.051
					c0,2.568-1.461,4.051-3.509,4.051C279.696,155.801,278.235,154.318,278.235,151.75z M282.63,151.75
					c0-1.494-0.376-1.959-0.886-1.959c-0.51,0-0.886,0.465-0.886,1.959c0,1.494,0.376,1.959,0.886,1.959
					C282.254,153.709,282.63,153.244,282.63,151.75z"/>
				<path fill="#F69451" d="M290.106,147.876v7.748h-2.611v-5.778h-1.328v-1.97H290.106z"/>
				<path fill="#F69451" d="M298.575,151.75c0-2.568,1.461-4.051,3.509-4.051s3.509,1.483,3.509,4.051
					c0,2.568-1.461,4.051-3.509,4.051S298.575,154.318,298.575,151.75z M302.97,151.75c0-1.494-0.376-1.959-0.886-1.959
					s-0.886,0.465-0.886,1.959c0,1.494,0.376,1.959,0.886,1.959S302.97,153.244,302.97,151.75z"/>
				<path fill="#F69451" d="M307.67,151.75c0-2.568,1.461-4.051,3.509-4.051s3.509,1.483,3.509,4.051
					c0,2.568-1.461,4.051-3.509,4.051S307.67,154.318,307.67,151.75z M312.065,151.75c0-1.494-0.376-1.959-0.886-1.959
					s-0.886,0.465-0.886,1.959c0,1.494,0.376,1.959,0.886,1.959S312.065,153.244,312.065,151.75z"/>
				<path fill="#F69451" d="M316.765,151.75c0-2.568,1.461-4.051,3.509-4.051c2.048,0,3.509,1.483,3.509,4.051
					c0,2.568-1.461,4.051-3.509,4.051C318.226,155.801,316.765,154.318,316.765,151.75z M321.16,151.75
					c0-1.494-0.376-1.959-0.886-1.959c-0.51,0-0.886,0.465-0.886,1.959c0,1.494,0.376,1.959,0.886,1.959
					C320.784,153.709,321.16,153.244,321.16,151.75z"/>
				<path fill="#F69451" d="M329.425,147.876v7.748h-2.612v-5.778h-1.328v-1.97H329.425z"/>
				<path fill="#F69451" d="M335.485,147.876v7.748h-2.611v-5.778h-1.328v-1.97H335.485z"/>
				<path fill="#F69451" d="M240.76,162.826c0-2.568,1.461-4.051,3.509-4.051c2.048,0,3.509,1.483,3.509,4.051
					c0,2.568-1.461,4.05-3.509,4.05C242.221,166.876,240.76,165.394,240.76,162.826z M245.155,162.826
					c0-1.494-0.376-1.959-0.886-1.959c-0.51,0-0.886,0.465-0.886,1.959c0,1.494,0.376,1.959,0.886,1.959
					C244.778,164.785,245.155,164.32,245.155,162.826z"/>
				<path fill="#F69451" d="M248.914,162.826c0-2.568,1.461-4.051,3.509-4.051s3.509,1.483,3.509,4.051
					c0,2.568-1.461,4.05-3.509,4.05S248.914,165.394,248.914,162.826z M253.309,162.826c0-1.494-0.376-1.959-0.886-1.959
					c-0.51,0-0.886,0.465-0.886,1.959c0,1.494,0.376,1.959,0.886,1.959C252.933,164.785,253.309,164.32,253.309,162.826z"/>
				<path fill="#F69451" d="M257.067,162.826c0-2.568,1.461-4.051,3.509-4.051s3.509,1.483,3.509,4.051
					c0,2.568-1.461,4.05-3.509,4.05S257.067,165.394,257.067,162.826z M261.462,162.826c0-1.494-0.376-1.959-0.886-1.959
					s-0.886,0.465-0.886,1.959c0,1.494,0.376,1.959,0.886,1.959S261.462,164.32,261.462,162.826z"/>
				<path fill="#F69451" d="M265.222,162.826c0-2.568,1.461-4.051,3.509-4.051s3.509,1.483,3.509,4.051
					c0,2.568-1.461,4.05-3.509,4.05S265.222,165.394,265.222,162.826z M269.617,162.826c0-1.494-0.376-1.959-0.886-1.959
					s-0.886,0.465-0.886,1.959c0,1.494,0.376,1.959,0.886,1.959S269.617,164.32,269.617,162.826z"/>
				<path fill="#F69451" d="M276.942,158.952v7.748h-2.611v-5.778h-1.328v-1.97H276.942z"/>
				<path fill="#F69451" d="M278.386,162.826c0-2.568,1.461-4.051,3.509-4.051s3.509,1.483,3.509,4.051
					c0,2.568-1.461,4.05-3.509,4.05S278.386,165.394,278.386,162.826z M282.781,162.826c0-1.494-0.376-1.959-0.886-1.959
					s-0.886,0.465-0.886,1.959c0,1.494,0.376,1.959,0.886,1.959S282.781,164.32,282.781,162.826z"/>
				<path fill="#F69451" d="M290.104,158.952v7.748h-2.612v-5.778h-1.328v-1.97H290.104z"/>
				<path fill="#F69451" d="M298.637,162.826c0-2.568,1.461-4.051,3.509-4.051s3.509,1.483,3.509,4.051
					c0,2.568-1.461,4.05-3.509,4.05S298.637,165.394,298.637,162.826z M303.032,162.826c0-1.494-0.376-1.959-0.886-1.959
					s-0.886,0.465-0.886,1.959c0,1.494,0.376,1.959,0.886,1.959S303.032,164.32,303.032,162.826z"/>
				<path fill="#F69451" d="M306.541,162.826c0-2.568,1.461-4.051,3.509-4.051s3.509,1.483,3.509,4.051
					c0,2.568-1.461,4.05-3.509,4.05S306.541,165.394,306.541,162.826z M310.936,162.826c0-1.494-0.376-1.959-0.886-1.959
					c-0.51,0-0.886,0.465-0.886,1.959c0,1.494,0.376,1.959,0.886,1.959C310.56,164.785,310.936,164.32,310.936,162.826z"/>
				<path fill="#F69451" d="M318.01,158.952v7.748h-2.612v-5.778h-1.328v-1.97H318.01z"/>
				<path fill="#F69451" d="M322.88,158.952v7.748h-2.611v-5.778h-1.328v-1.97H322.88z"/>
				<path fill="#F69451" d="M324.074,162.826c0-2.568,1.461-4.051,3.509-4.051s3.509,1.483,3.509,4.051
					c0,2.568-1.461,4.05-3.509,4.05S324.074,165.394,324.074,162.826z M328.469,162.826c0-1.494-0.376-1.959-0.886-1.959
					s-0.886,0.465-0.886,1.959c0,1.494,0.376,1.959,0.886,1.959S328.469,164.32,328.469,162.826z"/>
				<path fill="#F69451" d="M335.541,158.952v7.748h-2.612v-5.778h-1.328v-1.97H335.541z"/>
				<path fill="#F69451" d="M240.76,173.902c0-2.568,1.461-4.051,3.509-4.051c2.048,0,3.509,1.483,3.509,4.051
					c0,2.568-1.461,4.051-3.509,4.051C242.221,177.953,240.76,176.47,240.76,173.902z M245.155,173.902
					c0-1.494-0.376-1.959-0.886-1.959c-0.51,0-0.886,0.465-0.886,1.959c0,1.494,0.376,1.959,0.886,1.959
					C244.778,175.861,245.155,175.396,245.155,173.902z"/>
				<path fill="#F69451" d="M252.615,170.028v7.748h-2.611v-5.778h-1.328v-1.97H252.615z"/>
				<path fill="#F69451" d="M257.87,170.028v7.748h-2.611v-5.778h-1.328v-1.97H257.87z"/>
				<path fill="#F69451" d="M263.126,170.028v7.748h-2.611v-5.778h-1.328v-1.97H263.126z"/>
				<path fill="#F69451" d="M268.382,170.028v7.748h-2.611v-5.778h-1.328v-1.97H268.382z"/>
				<path fill="#F69451" d="M269.963,173.902c0-2.568,1.461-4.051,3.509-4.051s3.509,1.483,3.509,4.051
					c0,2.568-1.461,4.051-3.509,4.051S269.963,176.47,269.963,173.902z M274.358,173.902c0-1.494-0.376-1.959-0.886-1.959
					c-0.51,0-0.886,0.465-0.886,1.959c0,1.494,0.376,1.959,0.886,1.959C273.981,175.861,274.358,175.396,274.358,173.902z"/>
				<path fill="#F69451" d="M278.253,173.902c0-2.568,1.461-4.051,3.509-4.051s3.509,1.483,3.509,4.051
					c0,2.568-1.461,4.051-3.509,4.051S278.253,176.47,278.253,173.902z M282.648,173.902c0-1.494-0.376-1.959-0.886-1.959
					s-0.886,0.465-0.886,1.959c0,1.494,0.376,1.959,0.886,1.959S282.648,175.396,282.648,173.902z"/>
				<path fill="#F69451" d="M290.106,170.028v7.748h-2.611v-5.778h-1.328v-1.97H290.106z"/>
				<path fill="#F69451" d="M298.701,173.902c0-2.568,1.461-4.051,3.509-4.051s3.509,1.483,3.509,4.051
					c0,2.568-1.461,4.051-3.509,4.051S298.701,176.47,298.701,173.902z M303.096,173.902c0-1.494-0.376-1.959-0.886-1.959
					s-0.886,0.465-0.886,1.959c0,1.494,0.376,1.959,0.886,1.959S303.096,175.396,303.096,173.902z"/>
				<path fill="#F69451" d="M307.033,173.902c0-2.568,1.461-4.051,3.509-4.051s3.509,1.483,3.509,4.051
					c0,2.568-1.461,4.051-3.509,4.051S307.033,176.47,307.033,173.902z M311.428,173.902c0-1.494-0.376-1.959-0.886-1.959
					c-0.51,0-0.886,0.465-0.886,1.959c0,1.494,0.376,1.959,0.886,1.959C311.052,175.861,311.428,175.396,311.428,173.902z"/>
				<path fill="#F69451" d="M318.932,170.028v7.748h-2.612v-5.778h-1.328v-1.97H318.932z"/>
				<path fill="#F69451" d="M320.556,173.902c0-2.568,1.461-4.051,3.509-4.051c2.048,0,3.509,1.483,3.509,4.051
					c0,2.568-1.461,4.051-3.509,4.051C322.017,177.953,320.556,176.47,320.556,173.902z M324.951,173.902
					c0-1.494-0.376-1.959-0.886-1.959c-0.51,0-0.886,0.465-0.886,1.959c0,1.494,0.376,1.959,0.886,1.959
					C324.574,175.861,324.951,175.396,324.951,173.902z"/>
				<path fill="#F69451" d="M328.888,173.902c0-2.568,1.461-4.051,3.509-4.051s3.509,1.483,3.509,4.051
					c0,2.568-1.461,4.051-3.509,4.051S328.888,176.47,328.888,173.902z M333.283,173.902c0-1.494-0.376-1.959-0.886-1.959
					s-0.886,0.465-0.886,1.959c0,1.494,0.376,1.959,0.886,1.959S333.283,175.396,333.283,173.902z"/>
				<path fill="#F69451" d="M240.76,184.978c0-2.568,1.461-4.051,3.509-4.051c2.048,0,3.509,1.483,3.509,4.051
					c0,2.568-1.461,4.05-3.509,4.05C242.221,189.028,240.76,187.546,240.76,184.978z M245.155,184.978
					c0-1.494-0.376-1.959-0.886-1.959c-0.51,0-0.886,0.465-0.886,1.959c0,1.494,0.376,1.959,0.886,1.959
					C244.778,186.937,245.155,186.472,245.155,184.978z"/>
				<path fill="#F69451" d="M248.895,184.978c0-2.568,1.461-4.051,3.509-4.051s3.509,1.483,3.509,4.051
					c0,2.568-1.461,4.05-3.509,4.05S248.895,187.546,248.895,184.978z M253.29,184.978c0-1.494-0.376-1.959-0.886-1.959
					c-0.51,0-0.886,0.465-0.886,1.959c0,1.494,0.376,1.959,0.886,1.959C252.914,186.937,253.29,186.472,253.29,184.978z"/>
				<path fill="#F69451" d="M257.031,184.978c0-2.568,1.461-4.051,3.509-4.051c2.048,0,3.509,1.483,3.509,4.051
					c0,2.568-1.461,4.05-3.509,4.05C258.492,189.028,257.031,187.546,257.031,184.978z M261.426,184.978
					c0-1.494-0.376-1.959-0.886-1.959c-0.51,0-0.886,0.465-0.886,1.959c0,1.494,0.376,1.959,0.886,1.959
					C261.049,186.937,261.426,186.472,261.426,184.978z"/>
				<path fill="#F69451" d="M265.166,184.978c0-2.568,1.461-4.051,3.509-4.051s3.509,1.483,3.509,4.051
					c0,2.568-1.461,4.05-3.509,4.05S265.166,187.546,265.166,184.978z M269.561,184.978c0-1.494-0.376-1.959-0.886-1.959
					s-0.886,0.465-0.886,1.959c0,1.494,0.376,1.959,0.886,1.959S269.561,186.472,269.561,184.978z"/>
				<path fill="#F69451" d="M276.867,181.104v7.748h-2.611v-5.778h-1.328v-1.97H276.867z"/>
				<path fill="#F69451" d="M281.97,181.104v7.748h-2.612v-5.778h-1.328v-1.97H281.97z"/>
				<path fill="#F69451" d="M283.397,184.978c0-2.568,1.461-4.051,3.509-4.051s3.509,1.483,3.509,4.051
					c0,2.568-1.461,4.05-3.509,4.05S283.397,187.546,283.397,184.978z M287.792,184.978c0-1.494-0.376-1.959-0.886-1.959
					s-0.886,0.465-0.886,1.959c0,1.494,0.376,1.959,0.886,1.959S287.792,186.472,287.792,184.978z"/>
				<path fill="#F69451" d="M298.762,184.978c0-2.568,1.461-4.051,3.509-4.051s3.509,1.483,3.509,4.051
					c0,2.568-1.461,4.05-3.509,4.05S298.762,187.546,298.762,184.978z M303.157,184.978c0-1.494-0.376-1.959-0.886-1.959
					s-0.886,0.465-0.886,1.959c0,1.494,0.376,1.959,0.886,1.959S303.157,186.472,303.157,184.978z"/>
				<path fill="#F69451" d="M310.687,181.104v7.748h-2.611v-5.778h-1.328v-1.97H310.687z"/>
				<path fill="#F69451" d="M312.337,184.978c0-2.568,1.461-4.051,3.509-4.051s3.509,1.483,3.509,4.051
					c0,2.568-1.461,4.05-3.509,4.05S312.337,187.546,312.337,184.978z M316.732,184.978c0-1.494-0.376-1.959-0.886-1.959
					c-0.51,0-0.886,0.465-0.886,1.959c0,1.494,0.376,1.959,0.886,1.959C316.356,186.937,316.732,186.472,316.732,184.978z"/>
				<path fill="#F69451" d="M320.697,184.978c0-2.568,1.461-4.051,3.509-4.051s3.509,1.483,3.509,4.051
					c0,2.568-1.461,4.05-3.509,4.05S320.697,187.546,320.697,184.978z M325.092,184.978c0-1.494-0.376-1.959-0.886-1.959
					c-0.51,0-0.886,0.465-0.886,1.959c0,1.494,0.376,1.959,0.886,1.959C324.715,186.937,325.092,186.472,325.092,184.978z"/>
				<path fill="#F69451" d="M329.056,184.978c0-2.568,1.461-4.051,3.509-4.051s3.509,1.483,3.509,4.051
					c0,2.568-1.461,4.05-3.509,4.05S329.056,187.546,329.056,184.978z M333.451,184.978c0-1.494-0.376-1.959-0.886-1.959
					c-0.51,0-0.886,0.465-0.886,1.959c0,1.494,0.376,1.959,0.886,1.959C333.075,186.937,333.451,186.472,333.451,184.978z"/>
				<path fill="#F69451" d="M244.435,192.18v7.748h-2.611v-5.778h-1.328v-1.97H244.435z"/>
				<path fill="#F69451" d="M250.042,192.18v7.748h-2.611v-5.778h-1.328v-1.97H250.042z"/>
				<path fill="#F69451" d="M251.974,196.054c0-2.568,1.461-4.051,3.509-4.051s3.509,1.483,3.509,4.051
					c0,2.568-1.461,4.051-3.509,4.051S251.974,198.622,251.974,196.054z M256.369,196.054c0-1.494-0.376-1.959-0.886-1.959
					c-0.51,0-0.886,0.465-0.886,1.959c0,1.494,0.376,1.959,0.886,1.959C255.992,198.013,256.369,197.548,256.369,196.054z"/>
				<path fill="#F69451" d="M260.615,196.054c0-2.568,1.461-4.051,3.509-4.051s3.509,1.483,3.509,4.051
					c0,2.568-1.461,4.051-3.509,4.051S260.615,198.622,260.615,196.054z M265.01,196.054c0-1.494-0.376-1.959-0.886-1.959
					s-0.886,0.465-0.886,1.959c0,1.494,0.376,1.959,0.886,1.959S265.01,197.548,265.01,196.054z"/>
				<path fill="#F69451" d="M269.258,196.054c0-2.568,1.461-4.051,3.509-4.051c2.048,0,3.509,1.483,3.509,4.051
					c0,2.568-1.461,4.051-3.509,4.051C270.719,200.106,269.258,198.622,269.258,196.054z M273.653,196.054
					c0-1.494-0.376-1.959-0.886-1.959c-0.51,0-0.886,0.465-0.886,1.959c0,1.494,0.376,1.959,0.886,1.959
					C273.277,198.013,273.653,197.548,273.653,196.054z"/>
				<path fill="#F69451" d="M277.899,196.054c0-2.568,1.461-4.051,3.509-4.051c2.048,0,3.509,1.483,3.509,4.051
					c0,2.568-1.461,4.051-3.509,4.051C279.361,200.106,277.899,198.622,277.899,196.054z M282.294,196.054
					c0-1.494-0.376-1.959-0.886-1.959c-0.51,0-0.886,0.465-0.886,1.959c0,1.494,0.376,1.959,0.886,1.959
					C281.918,198.013,282.294,197.548,282.294,196.054z"/>
				<path fill="#F69451" d="M290.106,192.18v7.748h-2.611v-5.778h-1.328v-1.97H290.106z"/>
				<path fill="#F69451" d="M298.826,196.054c0-2.568,1.461-4.051,3.509-4.051s3.509,1.483,3.509,4.051
					c0,2.568-1.461,4.051-3.509,4.051S298.826,198.622,298.826,196.054z M303.221,196.054c0-1.494-0.376-1.959-0.886-1.959
					s-0.886,0.465-0.886,1.959c0,1.494,0.376,1.959,0.886,1.959S303.221,197.548,303.221,196.054z"/>
				<path fill="#F69451" d="M310.897,192.18v7.748h-2.611v-5.778h-1.328v-1.97H310.897z"/>
				<path fill="#F69451" d="M316.369,192.18v7.748h-2.612v-5.778h-1.328v-1.97H316.369z"/>
				<path fill="#F69451" d="M321.841,192.18v7.748h-2.611v-5.778h-1.328v-1.97H321.841z"/>
				<path fill="#F69451" d="M323.638,196.054c0-2.568,1.461-4.051,3.509-4.051s3.509,1.483,3.509,4.051
					c0,2.568-1.461,4.051-3.509,4.051S323.638,198.622,323.638,196.054z M328.033,196.054c0-1.494-0.376-1.959-0.886-1.959
					s-0.886,0.465-0.886,1.959c0,1.494,0.376,1.959,0.886,1.959S328.033,197.548,328.033,196.054z"/>
				<path fill="#F69451" d="M335.707,192.18v7.748h-2.611v-5.778h-1.328v-1.97H335.707z"/>
				<path fill="#F69451" d="M240.76,207.129c0-2.568,1.461-4.051,3.509-4.051c2.048,0,3.509,1.483,3.509,4.051
					c0,2.568-1.461,4.051-3.509,4.051C242.221,211.181,240.76,209.697,240.76,207.129z M245.155,207.129
					c0-1.494-0.376-1.959-0.886-1.959c-0.51,0-0.886,0.465-0.886,1.959c0,1.494,0.376,1.959,0.886,1.959
					C244.778,209.088,245.155,208.623,245.155,207.129z"/>
				<path fill="#F69451" d="M249.418,207.129c0-2.568,1.461-4.051,3.509-4.051s3.509,1.483,3.509,4.051
					c0,2.568-1.461,4.051-3.509,4.051S249.418,209.697,249.418,207.129z M253.813,207.129c0-1.494-0.376-1.959-0.886-1.959
					s-0.886,0.465-0.886,1.959c0,1.494,0.376,1.959,0.886,1.959S253.813,208.623,253.813,207.129z"/>
				<path fill="#F69451" d="M258.079,207.129c0-2.568,1.461-4.051,3.509-4.051c2.048,0,3.509,1.483,3.509,4.051
					c0,2.568-1.461,4.051-3.509,4.051C259.54,211.181,258.079,209.697,258.079,207.129z M262.474,207.129
					c0-1.494-0.376-1.959-0.886-1.959c-0.51,0-0.886,0.465-0.886,1.959c0,1.494,0.376,1.959,0.886,1.959
					C262.097,209.088,262.474,208.623,262.474,207.129z"/>
				<path fill="#F69451" d="M270.302,203.256v7.748h-2.611v-5.778h-1.328v-1.97H270.302z"/>
				<path fill="#F69451" d="M275.929,203.256v7.748h-2.611v-5.778h-1.328v-1.97H275.929z"/>
				<path fill="#F69451" d="M277.878,207.129c0-2.568,1.461-4.051,3.509-4.051s3.509,1.483,3.509,4.051
					c0,2.568-1.461,4.051-3.509,4.051S277.878,209.697,277.878,207.129z M282.273,207.129c0-1.494-0.376-1.959-0.886-1.959
					s-0.886,0.465-0.886,1.959c0,1.494,0.376,1.959,0.886,1.959S282.273,208.623,282.273,207.129z"/>
				<path fill="#F69451" d="M290.1,203.256v7.748h-2.611v-5.778h-1.328v-1.97H290.1z"/>
				<path fill="#F69451" d="M298.89,207.129c0-2.568,1.461-4.051,3.509-4.051c2.048,0,3.509,1.483,3.509,4.051
					c0,2.568-1.461,4.051-3.509,4.051C300.351,211.181,298.89,209.697,298.89,207.129z M303.285,207.129
					c0-1.494-0.376-1.959-0.886-1.959c-0.51,0-0.886,0.465-0.886,1.959c0,1.494,0.376,1.959,0.886,1.959
					C302.908,209.088,303.285,208.623,303.285,207.129z"/>
				<path fill="#F69451" d="M306.788,207.129c0-2.568,1.461-4.051,3.509-4.051s3.509,1.483,3.509,4.051
					c0,2.568-1.461,4.051-3.509,4.051S306.788,209.697,306.788,207.129z M311.183,207.129c0-1.494-0.376-1.959-0.886-1.959
					c-0.51,0-0.886,0.465-0.886,1.959c0,1.494,0.376,1.959,0.886,1.959C310.807,209.088,311.183,208.623,311.183,207.129z"/>
				<path fill="#F69451" d="M318.251,203.256v7.748h-2.611v-5.778h-1.328v-1.97H318.251z"/>
				<path fill="#F69451" d="M323.115,203.256v7.748h-2.611v-5.778h-1.328v-1.97H323.115z"/>
				<path fill="#F69451" d="M324.302,207.129c0-2.568,1.461-4.051,3.509-4.051s3.509,1.483,3.509,4.051
					c0,2.568-1.461,4.051-3.509,4.051S324.302,209.697,324.302,207.129z M328.697,207.129c0-1.494-0.376-1.959-0.886-1.959
					s-0.886,0.465-0.886,1.959c0,1.494,0.376,1.959,0.886,1.959S328.697,208.623,328.697,207.129z"/>
				<path fill="#F69451" d="M335.763,203.256v7.748h-2.611v-5.778h-1.328v-1.97H335.763z"/>
				<path fill="#F69451" d="M240.76,218.206c0-2.568,1.461-4.051,3.509-4.051c2.048,0,3.509,1.483,3.509,4.051
					s-1.461,4.05-3.509,4.05C242.221,222.256,240.76,220.774,240.76,218.206z M245.155,218.206c0-1.494-0.376-1.959-0.886-1.959
					c-0.51,0-0.886,0.465-0.886,1.959s0.376,1.959,0.886,1.959C244.778,220.165,245.155,219.699,245.155,218.206z"/>
				<path fill="#F69451" d="M252.615,214.332v7.748h-2.611v-5.778h-1.328v-1.97H252.615z"/>
				<path fill="#F69451" d="M257.868,214.332v7.748h-2.611v-5.778h-1.328v-1.97H257.868z"/>
				<path fill="#F69451" d="M263.124,214.332v7.748h-2.611v-5.778h-1.328v-1.97H263.124z"/>
				<path fill="#F69451" d="M268.38,214.332v7.748h-2.611v-5.778h-1.328v-1.97H268.38z"/>
				<path fill="#F69451" d="M269.961,218.206c0-2.568,1.461-4.051,3.509-4.051c2.048,0,3.509,1.483,3.509,4.051
					s-1.461,4.05-3.509,4.05C271.422,222.256,269.961,220.774,269.961,218.206z M274.356,218.206c0-1.494-0.376-1.959-0.886-1.959
					c-0.51,0-0.886,0.465-0.886,1.959s0.376,1.959,0.886,1.959C273.979,220.165,274.356,219.699,274.356,218.206z"/>
				<path fill="#F69451" d="M278.249,218.206c0-2.568,1.461-4.051,3.509-4.051s3.509,1.483,3.509,4.051s-1.461,4.05-3.509,4.05
					S278.249,220.774,278.249,218.206z M282.644,218.206c0-1.494-0.376-1.959-0.886-1.959c-0.51,0-0.886,0.465-0.886,1.959
					s0.376,1.959,0.886,1.959C282.267,220.165,282.644,219.699,282.644,218.206z"/>
				<path fill="#F69451" d="M290.102,214.332v7.748h-2.611v-5.778h-1.328v-1.97H290.102z"/>
				<path fill="#F69451" d="M298.952,218.206c0-2.568,1.461-4.051,3.509-4.051s3.509,1.483,3.509,4.051s-1.461,4.05-3.509,4.05
					S298.952,220.774,298.952,218.206z M303.347,218.206c0-1.494-0.376-1.959-0.886-1.959c-0.51,0-0.886,0.465-0.886,1.959
					s0.376,1.959,0.886,1.959C302.97,220.165,303.347,219.699,303.347,218.206z"/>
				<path fill="#F69451" d="M307.278,218.206c0-2.568,1.461-4.051,3.509-4.051s3.509,1.483,3.509,4.051s-1.461,4.05-3.509,4.05
					S307.278,220.774,307.278,218.206z M311.673,218.206c0-1.494-0.376-1.959-0.886-1.959s-0.886,0.465-0.886,1.959
					s0.376,1.959,0.886,1.959S311.673,219.699,311.673,218.206z"/>
				<path fill="#F69451" d="M319.168,214.332v7.748h-2.611v-5.778h-1.328v-1.97H319.168z"/>
				<path fill="#F69451" d="M320.785,218.206c0-2.568,1.461-4.051,3.509-4.051s3.509,1.483,3.509,4.051s-1.461,4.05-3.509,4.05
					S320.785,220.774,320.785,218.206z M325.18,218.206c0-1.494-0.376-1.959-0.886-1.959s-0.886,0.465-0.886,1.959
					s0.376,1.959,0.886,1.959S325.18,219.699,325.18,218.206z"/>
				<path fill="#F69451" d="M329.11,218.206c0-2.568,1.461-4.051,3.509-4.051c2.048,0,3.509,1.483,3.509,4.051
					s-1.461,4.05-3.509,4.05C330.571,222.256,329.11,220.774,329.11,218.206z M333.505,218.206c0-1.494-0.376-1.959-0.886-1.959
					c-0.51,0-0.886,0.465-0.886,1.959s0.376,1.959,0.886,1.959C333.129,220.165,333.505,219.699,333.505,218.206z"/>
				<path fill="#F69451" d="M240.76,229.282c0-2.568,1.461-4.051,3.509-4.051c2.048,0,3.509,1.483,3.509,4.051
					c0,2.568-1.461,4.051-3.509,4.051C242.221,233.333,240.76,231.85,240.76,229.282z M245.155,229.282
					c0-1.494-0.376-1.959-0.886-1.959c-0.51,0-0.886,0.465-0.886,1.959c0,1.494,0.376,1.959,0.886,1.959
					C244.778,231.241,245.155,230.776,245.155,229.282z"/>
				<path fill="#F69451" d="M248.895,229.282c0-2.568,1.461-4.051,3.509-4.051s3.509,1.483,3.509,4.051
					c0,2.568-1.461,4.051-3.509,4.051S248.895,231.85,248.895,229.282z M253.29,229.282c0-1.494-0.376-1.959-0.886-1.959
					c-0.51,0-0.886,0.465-0.886,1.959c0,1.494,0.376,1.959,0.886,1.959C252.914,231.241,253.29,230.776,253.29,229.282z"/>
				<path fill="#F69451" d="M257.031,229.282c0-2.568,1.461-4.051,3.509-4.051c2.048,0,3.509,1.483,3.509,4.051
					c0,2.568-1.461,4.051-3.509,4.051C258.492,233.333,257.031,231.85,257.031,229.282z M261.426,229.282
					c0-1.494-0.376-1.959-0.886-1.959c-0.51,0-0.886,0.465-0.886,1.959c0,1.494,0.376,1.959,0.886,1.959
					C261.049,231.241,261.426,230.776,261.426,229.282z"/>
				<path fill="#F69451" d="M265.164,229.282c0-2.568,1.461-4.051,3.509-4.051c2.048,0,3.509,1.483,3.509,4.051
					c0,2.568-1.461,4.051-3.509,4.051C266.625,233.333,265.164,231.85,265.164,229.282z M269.559,229.282
					c0-1.494-0.376-1.959-0.886-1.959c-0.51,0-0.886,0.465-0.886,1.959c0,1.494,0.376,1.959,0.886,1.959
					C269.183,231.241,269.559,230.776,269.559,229.282z"/>
				<path fill="#F69451" d="M276.865,225.408v7.748h-2.611v-5.778h-1.328v-1.97H276.865z"/>
				<path fill="#F69451" d="M281.966,225.408v7.748h-2.611v-5.778h-1.328v-1.97H281.966z"/>
				<path fill="#F69451" d="M283.393,229.282c0-2.568,1.461-4.051,3.509-4.051s3.509,1.483,3.509,4.051
					c0,2.568-1.461,4.051-3.509,4.051S283.393,231.85,283.393,229.282z M287.788,229.282c0-1.494-0.376-1.959-0.886-1.959
					s-0.886,0.465-0.886,1.959c0,1.494,0.376,1.959,0.886,1.959S287.788,230.776,287.788,229.282z"/>
				<path fill="#F69451" d="M299.015,229.282c0-2.568,1.461-4.051,3.509-4.051c2.048,0,3.509,1.483,3.509,4.051
					c0,2.568-1.461,4.051-3.509,4.051C300.476,233.333,299.015,231.85,299.015,229.282z M303.41,229.282
					c0-1.494-0.376-1.959-0.886-1.959c-0.51,0-0.886,0.465-0.886,1.959c0,1.494,0.376,1.959,0.886,1.959
					C303.034,231.241,303.41,230.776,303.41,229.282z"/>
				<path fill="#F69451" d="M310.932,225.408v7.748h-2.612v-5.778h-1.328v-1.97H310.932z"/>
				<path fill="#F69451" d="M312.575,229.282c0-2.568,1.461-4.051,3.509-4.051s3.509,1.483,3.509,4.051
					c0,2.568-1.461,4.051-3.509,4.051S312.575,231.85,312.575,229.282z M316.97,229.282c0-1.494-0.376-1.959-0.886-1.959
					s-0.886,0.465-0.886,1.959c0,1.494,0.376,1.959,0.886,1.959S316.97,230.776,316.97,229.282z"/>
				<path fill="#F69451" d="M320.926,229.282c0-2.568,1.461-4.051,3.509-4.051s3.509,1.483,3.509,4.051
					c0,2.568-1.461,4.051-3.509,4.051S320.926,231.85,320.926,229.282z M325.321,229.282c0-1.494-0.376-1.959-0.886-1.959
					s-0.886,0.465-0.886,1.959c0,1.494,0.376,1.959,0.886,1.959S325.321,230.776,325.321,229.282z"/>
				<path fill="#F69451" d="M329.278,229.282c0-2.568,1.461-4.051,3.509-4.051s3.509,1.483,3.509,4.051
					c0,2.568-1.461,4.051-3.509,4.051S329.278,231.85,329.278,229.282z M333.673,229.282c0-1.494-0.376-1.959-0.886-1.959
					s-0.886,0.465-0.886,1.959c0,1.494,0.376,1.959,0.886,1.959S333.673,230.776,333.673,229.282z"/>
				<path fill="#F69451" d="M244.435,236.484v7.748h-2.611v-5.778h-1.328v-1.97H244.435z"/>
				<path fill="#F69451" d="M250.042,236.484v7.748h-2.611v-5.778h-1.328v-1.97H250.042z"/>
				<path fill="#F69451" d="M251.974,240.358c0-2.568,1.461-4.051,3.509-4.051s3.509,1.483,3.509,4.051s-1.461,4.05-3.509,4.05
					S251.974,242.926,251.974,240.358z M256.369,240.358c0-1.494-0.376-1.959-0.886-1.959c-0.51,0-0.886,0.465-0.886,1.959
					s0.376,1.959,0.886,1.959C255.992,242.317,256.369,241.852,256.369,240.358z"/>
				<path fill="#F69451" d="M260.615,240.358c0-2.568,1.461-4.051,3.509-4.051s3.509,1.483,3.509,4.051s-1.461,4.05-3.509,4.05
					S260.615,242.926,260.615,240.358z M265.01,240.358c0-1.494-0.376-1.959-0.886-1.959s-0.886,0.465-0.886,1.959
					s0.376,1.959,0.886,1.959S265.01,241.852,265.01,240.358z"/>
				<path fill="#F69451" d="M269.254,240.358c0-2.568,1.461-4.051,3.509-4.051s3.509,1.483,3.509,4.051s-1.461,4.05-3.509,4.05
					S269.254,242.926,269.254,240.358z M273.649,240.358c0-1.494-0.376-1.959-0.886-1.959s-0.886,0.465-0.886,1.959
					s0.376,1.959,0.886,1.959S273.649,241.852,273.649,240.358z"/>
				<path fill="#F69451" d="M277.896,240.358c0-2.568,1.461-4.051,3.509-4.051s3.509,1.483,3.509,4.051s-1.461,4.05-3.509,4.05
					S277.896,242.926,277.896,240.358z M282.291,240.358c0-1.494-0.376-1.959-0.886-1.959s-0.886,0.465-0.886,1.959
					s0.376,1.959,0.886,1.959S282.291,241.852,282.291,240.358z"/>
				<path fill="#F69451" d="M290.102,236.484v7.748h-2.611v-5.778h-1.328v-1.97H290.102z"/>
				<path fill="#F69451" d="M299.077,240.358c0-2.568,1.461-4.051,3.509-4.051s3.509,1.483,3.509,4.051s-1.461,4.05-3.509,4.05
					S299.077,242.926,299.077,240.358z M303.472,240.358c0-1.494-0.376-1.959-0.886-1.959c-0.51,0-0.886,0.465-0.886,1.959
					s0.376,1.959,0.886,1.959C303.096,242.317,303.472,241.852,303.472,240.358z"/>
				<path fill="#F69451" d="M311.142,236.484v7.748h-2.612v-5.778h-1.328v-1.97H311.142z"/>
				<path fill="#F69451" d="M316.611,236.484v7.748h-2.611v-5.778h-1.328v-1.97H316.611z"/>
				<path fill="#F69451" d="M322.077,236.484v7.748h-2.611v-5.778h-1.328v-1.97H322.077z"/>
				<path fill="#F69451" d="M323.868,240.358c0-2.568,1.461-4.051,3.509-4.051c2.048,0,3.509,1.483,3.509,4.051
					s-1.461,4.05-3.509,4.05C325.329,244.408,323.868,242.926,323.868,240.358z M328.263,240.358c0-1.494-0.376-1.959-0.886-1.959
					c-0.51,0-0.886,0.465-0.886,1.959s0.376,1.959,0.886,1.959C327.886,242.317,328.263,241.852,328.263,240.358z"/>
				<path fill="#F69451" d="M335.931,236.484v7.748h-2.612v-5.778h-1.328v-1.97H335.931z"/>
				<path fill="#F69451" d="M240.76,251.433c0-2.568,1.461-4.051,3.509-4.051c2.048,0,3.509,1.483,3.509,4.051
					c0,2.568-1.461,4.05-3.509,4.05C242.221,255.483,240.76,254.001,240.76,251.433z M245.155,251.433
					c0-1.494-0.376-1.959-0.886-1.959c-0.51,0-0.886,0.465-0.886,1.959c0,1.494,0.376,1.959,0.886,1.959
					C244.778,253.392,245.155,252.927,245.155,251.433z"/>
				<path fill="#F69451" d="M248.895,251.433c0-2.568,1.461-4.051,3.509-4.051s3.509,1.483,3.509,4.051
					c0,2.568-1.461,4.05-3.509,4.05S248.895,254.001,248.895,251.433z M253.29,251.433c0-1.494-0.376-1.959-0.886-1.959
					c-0.51,0-0.886,0.465-0.886,1.959c0,1.494,0.376,1.959,0.886,1.959C252.914,253.392,253.29,252.927,253.29,251.433z"/>
				<path fill="#F69451" d="M257.031,251.433c0-2.568,1.461-4.051,3.509-4.051c2.048,0,3.509,1.483,3.509,4.051
					c0,2.568-1.461,4.05-3.509,4.05C258.492,255.483,257.031,254.001,257.031,251.433z M261.426,251.433
					c0-1.494-0.376-1.959-0.886-1.959c-0.51,0-0.886,0.465-0.886,1.959c0,1.494,0.376,1.959,0.886,1.959
					C261.049,253.392,261.426,252.927,261.426,251.433z"/>
				<path fill="#F69451" d="M268.729,247.559v7.748h-2.612v-5.778h-1.328v-1.97H268.729z"/>
				<path fill="#F69451" d="M273.831,247.559v7.748h-2.612v-5.778h-1.328v-1.97H273.831z"/>
				<path fill="#F69451" d="M275.257,251.433c0-2.568,1.461-4.051,3.509-4.051c2.048,0,3.509,1.483,3.509,4.051
					c0,2.568-1.461,4.05-3.509,4.05C276.718,255.483,275.257,254.001,275.257,251.433z M279.652,251.433
					c0-1.494-0.376-1.959-0.886-1.959c-0.51,0-0.886,0.465-0.886,1.959c0,1.494,0.376,1.959,0.886,1.959
					C279.276,253.392,279.652,252.927,279.652,251.433z"/>
				<path fill="#F69451" d="M283.393,251.433c0-2.568,1.461-4.051,3.509-4.051s3.509,1.483,3.509,4.051
					c0,2.568-1.461,4.05-3.509,4.05S283.393,254.001,283.393,251.433z M287.788,251.433c0-1.494-0.376-1.959-0.886-1.959
					s-0.886,0.465-0.886,1.959c0,1.494,0.376,1.959,0.886,1.959S287.788,252.927,287.788,251.433z"/>
				<path fill="#F69451" d="M299.139,251.433c0-2.568,1.461-4.051,3.509-4.051s3.509,1.483,3.509,4.051
					c0,2.568-1.461,4.05-3.509,4.05S299.139,254.001,299.139,251.433z M303.534,251.433c0-1.494-0.376-1.959-0.886-1.959
					s-0.886,0.465-0.886,1.959c0,1.494,0.376,1.959,0.886,1.959S303.534,252.927,303.534,251.433z"/>
				<path fill="#F69451" d="M308.245,251.433c0-2.568,1.461-4.051,3.509-4.051s3.509,1.483,3.509,4.051
					c0,2.568-1.461,4.05-3.509,4.05S308.245,254.001,308.245,251.433z M312.64,251.433c0-1.494-0.376-1.959-0.886-1.959
					s-0.886,0.465-0.886,1.959c0,1.494,0.376,1.959,0.886,1.959S312.64,252.927,312.64,251.433z"/>
				<path fill="#F69451" d="M320.919,247.559v7.748h-2.611v-5.778h-1.328v-1.97H320.919z"/>
				<path fill="#F69451" d="M323.316,251.433c0-2.568,1.461-4.051,3.509-4.051s3.509,1.483,3.509,4.051
					c0,2.568-1.461,4.05-3.509,4.05S323.316,254.001,323.316,251.433z M327.711,251.433c0-1.494-0.376-1.959-0.886-1.959
					s-0.886,0.465-0.886,1.959c0,1.494,0.376,1.959,0.886,1.959S327.711,252.927,327.711,251.433z"/>
				<path fill="#F69451" d="M335.987,247.559v7.748h-2.612v-5.778h-1.328v-1.97H335.987z"/>
				<path fill="#F69451" d="M240.76,262.509c0-2.568,1.461-4.051,3.509-4.051c2.048,0,3.509,1.483,3.509,4.051
					c0,2.568-1.461,4.051-3.509,4.051C242.221,266.561,240.76,265.077,240.76,262.509z M245.155,262.509
					c0-1.494-0.376-1.959-0.886-1.959c-0.51,0-0.886,0.465-0.886,1.959c0,1.494,0.376,1.959,0.886,1.959
					C244.778,264.468,245.155,264.003,245.155,262.509z"/>
				<path fill="#F69451" d="M248.631,262.509c0-2.568,1.461-4.051,3.509-4.051c2.048,0,3.509,1.483,3.509,4.051
					c0,2.568-1.461,4.051-3.509,4.051C250.092,266.561,248.631,265.077,248.631,262.509z M253.026,262.509
					c0-1.494-0.376-1.959-0.886-1.959c-0.51,0-0.886,0.465-0.886,1.959c0,1.494,0.376,1.959,0.886,1.959
					C252.649,264.468,253.026,264.003,253.026,262.509z"/>
				<path fill="#F69451" d="M260.069,258.635v7.748h-2.611v-5.778h-1.328v-1.97H260.069z"/>
				<path fill="#F69451" d="M264.906,258.635v7.748h-2.611v-5.778h-1.328v-1.97H264.906z"/>
				<path fill="#F69451" d="M266.068,262.509c0-2.568,1.461-4.051,3.509-4.051s3.509,1.483,3.509,4.051
					c0,2.568-1.461,4.051-3.509,4.051S266.068,265.077,266.068,262.509z M270.463,262.509c0-1.494-0.376-1.959-0.886-1.959
					s-0.886,0.465-0.886,1.959c0,1.494,0.376,1.959,0.886,1.959S270.463,264.003,270.463,262.509z"/>
				<path fill="#F69451" d="M277.502,258.635v7.748h-2.612v-5.778h-1.328v-1.97H277.502z"/>
				<path fill="#F69451" d="M278.666,262.509c0-2.568,1.461-4.051,3.509-4.051s3.509,1.483,3.509,4.051
					c0,2.568-1.461,4.051-3.509,4.051S278.666,265.077,278.666,262.509z M283.061,262.509c0-1.494-0.376-1.959-0.886-1.959
					c-0.51,0-0.886,0.465-0.886,1.959c0,1.494,0.376,1.959,0.886,1.959C282.684,264.468,283.061,264.003,283.061,262.509z"/>
				<path fill="#F69451" d="M290.102,258.635v7.748h-2.611v-5.778h-1.328v-1.97H290.102z"/>
				<path fill="#F69451" d="M302.878,258.635v7.748h-2.612v-5.778h-1.328v-1.97H302.878z"/>
				<path fill="#F69451" d="M308.319,258.635v7.748h-2.611v-5.778h-1.328v-1.97H308.319z"/>
				<path fill="#F69451" d="M313.76,258.635v7.748h-2.612v-5.778h-1.328v-1.97H313.76z"/>
				<path fill="#F69451" d="M315.528,262.509c0-2.568,1.461-4.051,3.509-4.051s3.509,1.483,3.509,4.051
					c0,2.568-1.461,4.051-3.509,4.051S315.528,265.077,315.528,262.509z M319.923,262.509c0-1.494-0.376-1.959-0.886-1.959
					s-0.886,0.465-0.886,1.959c0,1.494,0.376,1.959,0.886,1.959S319.923,264.003,319.923,262.509z"/>
				<path fill="#F69451" d="M324.003,262.509c0-2.568,1.461-4.051,3.509-4.051s3.509,1.483,3.509,4.051
					c0,2.568-1.461,4.051-3.509,4.051S324.003,265.077,324.003,262.509z M328.398,262.509c0-1.494-0.376-1.959-0.886-1.959
					s-0.886,0.465-0.886,1.959c0,1.494,0.376,1.959,0.886,1.959S328.398,264.003,328.398,262.509z"/>
				<path fill="#F69451" d="M336.043,258.635v7.748h-2.611v-5.778h-1.328v-1.97H336.043z"/>
				<path fill="#F69451" d="M245.656,273.585c0-2.568,1.461-4.051,3.509-4.051s3.509,1.483,3.509,4.051
					c0,2.568-1.461,4.05-3.509,4.05S245.656,276.153,245.656,273.585z M250.051,273.585c0-1.494-0.376-1.959-0.886-1.959
					s-0.886,0.465-0.886,1.959c0,1.494,0.376,1.959,0.886,1.959S250.051,275.079,250.051,273.585z"/>
				<path fill="#F69451" d="M253.832,273.585c0-2.568,1.461-4.051,3.509-4.051s3.509,1.483,3.509,4.051
					c0,2.568-1.461,4.05-3.509,4.05S253.832,276.153,253.832,273.585z M258.227,273.585c0-1.494-0.376-1.959-0.886-1.959
					s-0.886,0.465-0.886,1.959c0,1.494,0.376,1.959,0.886,1.959S258.227,275.079,258.227,273.585z"/>
				<path fill="#F69451" d="M265.574,269.712v7.748h-2.612v-5.778h-1.328v-1.97H265.574z"/>
				<path fill="#F69451" d="M267.04,273.585c0-2.568,1.461-4.051,3.509-4.051s3.509,1.483,3.509,4.051
					c0,2.568-1.461,4.05-3.509,4.05S267.04,276.153,267.04,273.585z M271.435,273.585c0-1.494-0.376-1.959-0.886-1.959
					c-0.51,0-0.886,0.465-0.886,1.959c0,1.494,0.376,1.959,0.886,1.959C271.059,275.544,271.435,275.079,271.435,273.585z"/>
				<path fill="#F69451" d="M275.215,273.585c0-2.568,1.461-4.051,3.509-4.051s3.509,1.483,3.509,4.051
					c0,2.568-1.461,4.05-3.509,4.05S275.215,276.153,275.215,273.585z M279.61,273.585c0-1.494-0.376-1.959-0.886-1.959
					s-0.886,0.465-0.886,1.959c0,1.494,0.376,1.959,0.886,1.959S279.61,275.079,279.61,273.585z"/>
				<path fill="#F69451" d="M283.391,273.585c0-2.568,1.461-4.051,3.509-4.051c2.048,0,3.509,1.483,3.509,4.051
					c0,2.568-1.461,4.05-3.509,4.05C284.852,277.636,283.391,276.153,283.391,273.585z M287.786,273.585
					c0-1.494-0.376-1.959-0.886-1.959c-0.51,0-0.886,0.465-0.886,1.959c0,1.494,0.376,1.959,0.886,1.959
					C287.409,275.544,287.786,275.079,287.786,273.585z"/>
				<path fill="#F69451" d="M299.345,273.585c0-2.568,1.461-4.051,3.509-4.051s3.509,1.483,3.509,4.051
					c0,2.568-1.461,4.05-3.509,4.05S299.345,276.153,299.345,273.585z M303.74,273.585c0-1.494-0.376-1.959-0.886-1.959
					c-0.51,0-0.886,0.465-0.886,1.959c0,1.494,0.376,1.959,0.886,1.959C303.364,275.544,303.74,275.079,303.74,273.585z"/>
				<path fill="#F69451" d="M307.184,273.585c0-2.568,1.461-4.051,3.509-4.051s3.509,1.483,3.509,4.051
					c0,2.568-1.461,4.05-3.509,4.05S307.184,276.153,307.184,273.585z M311.579,273.585c0-1.494-0.376-1.959-0.886-1.959
					s-0.886,0.465-0.886,1.959c0,1.494,0.376,1.959,0.886,1.959S311.579,275.079,311.579,273.585z"/>
				<path fill="#F69451" d="M315.024,273.585c0-2.568,1.461-4.051,3.509-4.051c2.048,0,3.509,1.483,3.509,4.051
					c0,2.568-1.461,4.05-3.509,4.05C316.485,277.636,315.024,276.153,315.024,273.585z M319.419,273.585
					c0-1.494-0.376-1.959-0.886-1.959c-0.51,0-0.886,0.465-0.886,1.959c0,1.494,0.376,1.959,0.886,1.959
					C319.043,275.544,319.419,275.079,319.419,273.585z"/>
				<path fill="#F69451" d="M326.427,269.712v7.748h-2.611v-5.778h-1.328v-1.97H326.427z"/>
				<path fill="#F69451" d="M331.231,269.712v7.748h-2.611v-5.778h-1.328v-1.97H331.231z"/>
				<path fill="#F69451" d="M336.037,269.712v7.748h-2.611v-5.778h-1.328v-1.97H336.037z"/>
				<path fill="#F69451" d="M249.331,280.788v7.748h-2.611v-5.778h-1.328v-1.97H249.331z"/>
				<path fill="#F69451" d="M251.404,284.661c0-2.568,1.461-4.051,3.509-4.051s3.509,1.483,3.509,4.051s-1.461,4.051-3.509,4.051
					S251.404,287.23,251.404,284.661z M255.799,284.661c0-1.494-0.376-1.959-0.886-1.959c-0.51,0-0.886,0.465-0.886,1.959
					s0.376,1.959,0.886,1.959C255.423,286.621,255.799,286.155,255.799,284.661z"/>
				<path fill="#F69451" d="M260.188,284.661c0-2.568,1.461-4.051,3.509-4.051c2.048,0,3.509,1.483,3.509,4.051
					s-1.461,4.051-3.509,4.051C261.65,288.713,260.188,287.23,260.188,284.661z M264.583,284.661c0-1.494-0.376-1.959-0.886-1.959
					c-0.51,0-0.886,0.465-0.886,1.959s0.376,1.959,0.886,1.959C264.207,286.621,264.583,286.155,264.583,284.661z"/>
				<path fill="#F69451" d="M268.971,284.661c0-2.568,1.461-4.051,3.509-4.051s3.509,1.483,3.509,4.051s-1.461,4.051-3.509,4.051
					S268.971,287.23,268.971,284.661z M273.366,284.661c0-1.494-0.376-1.959-0.886-1.959c-0.51,0-0.886,0.465-0.886,1.959
					s0.376,1.959,0.886,1.959C272.989,286.621,273.366,286.155,273.366,284.661z"/>
				<path fill="#F69451" d="M277.753,284.661c0-2.568,1.461-4.051,3.509-4.051s3.509,1.483,3.509,4.051s-1.461,4.051-3.509,4.051
					S277.753,287.23,277.753,284.661z M282.148,284.661c0-1.494-0.376-1.959-0.886-1.959s-0.886,0.465-0.886,1.959
					s0.376,1.959,0.886,1.959S282.148,286.155,282.148,284.661z"/>
				<path fill="#F69451" d="M290.102,280.788v7.748h-2.611v-5.778h-1.328v-1.97H290.102z"/>
				<path fill="#F69451" d="M304.366,284.661c0-2.568,1.461-4.051,3.509-4.051s3.509,1.483,3.509,4.051s-1.461,4.051-3.509,4.051
					S304.366,287.23,304.366,284.661z M308.761,284.661c0-1.494-0.376-1.959-0.886-1.959c-0.51,0-0.886,0.465-0.886,1.959
					s0.376,1.959,0.886,1.959C308.384,286.621,308.761,286.155,308.761,284.661z"/>
				<path fill="#F69451" d="M317.649,280.788v7.748h-2.611v-5.778h-1.328v-1.97H317.649z"/>
				<path fill="#F69451" d="M324.333,280.788v7.748h-2.611v-5.778h-1.328v-1.97H324.333z"/>
				<path fill="#F69451" d="M331.019,280.788v7.748h-2.612v-5.778h-1.328v-1.97H331.019z"/>
				<path fill="#F69451" d="M245.656,295.737c0-2.568,1.461-4.051,3.509-4.051s3.509,1.483,3.509,4.051
					c0,2.568-1.461,4.051-3.509,4.051S245.656,298.305,245.656,295.737z M250.051,295.737c0-1.494-0.376-1.959-0.886-1.959
					s-0.886,0.465-0.886,1.959c0,1.494,0.376,1.959,0.886,1.959S250.051,297.231,250.051,295.737z"/>
				<path fill="#F69451" d="M257.065,291.863v7.748h-2.611v-5.778h-1.328v-1.97H257.065z"/>
				<path fill="#F69451" d="M258.198,295.737c0-2.568,1.461-4.051,3.509-4.051s3.509,1.483,3.509,4.051
					c0,2.568-1.461,4.051-3.509,4.051S258.198,298.305,258.198,295.737z M262.593,295.737c0-1.494-0.376-1.959-0.886-1.959
					s-0.886,0.465-0.886,1.959c0,1.494,0.376,1.959,0.886,1.959S262.593,297.231,262.593,295.737z"/>
				<path fill="#F69451" d="M266.043,295.737c0-2.568,1.461-4.051,3.509-4.051s3.509,1.483,3.509,4.051
					c0,2.568-1.461,4.051-3.509,4.051S266.043,298.305,266.043,295.737z M270.438,295.737c0-1.494-0.376-1.959-0.886-1.959
					s-0.886,0.465-0.886,1.959c0,1.494,0.376,1.959,0.886,1.959S270.438,297.231,270.438,295.737z"/>
				<path fill="#F69451" d="M273.885,295.737c0-2.568,1.461-4.051,3.509-4.051s3.509,1.483,3.509,4.051
					c0,2.568-1.461,4.051-3.509,4.051S273.885,298.305,273.885,295.737z M278.28,295.737c0-1.494-0.376-1.959-0.886-1.959
					s-0.886,0.465-0.886,1.959c0,1.494,0.376,1.959,0.886,1.959S278.28,297.231,278.28,295.737z"/>
				<path fill="#F69451" d="M285.292,291.863v7.748h-2.612v-5.778h-1.328v-1.97H285.292z"/>
				<path fill="#F69451" d="M290.1,291.863v7.748h-2.611v-5.778h-1.328v-1.97H290.1z"/>
				<path fill="#F69451" d="M245.656,306.813c0-2.568,1.461-4.051,3.509-4.051s3.509,1.483,3.509,4.051s-1.461,4.05-3.509,4.05
					S245.656,309.381,245.656,306.813z M250.051,306.813c0-1.494-0.376-1.959-0.886-1.959s-0.886,0.465-0.886,1.959
					s0.376,1.959,0.886,1.959S250.051,308.307,250.051,306.813z"/>
				<path fill="#F69451" d="M253.854,306.813c0-2.568,1.461-4.051,3.509-4.051c2.048,0,3.509,1.483,3.509,4.051
					s-1.461,4.05-3.509,4.05C255.315,310.863,253.854,309.381,253.854,306.813z M258.249,306.813c0-1.494-0.376-1.959-0.886-1.959
					s-0.886,0.465-0.886,1.959s0.376,1.959,0.886,1.959S258.249,308.307,258.249,306.813z"/>
				<path fill="#F69451" d="M262.053,306.813c0-2.568,1.461-4.051,3.509-4.051s3.509,1.483,3.509,4.051s-1.461,4.05-3.509,4.05
					S262.053,309.381,262.053,306.813z M266.448,306.813c0-1.494-0.376-1.959-0.886-1.959s-0.886,0.465-0.886,1.959
					s0.376,1.959,0.886,1.959S266.448,308.307,266.448,306.813z"/>
				<path fill="#F69451" d="M270.25,306.813c0-2.568,1.461-4.051,3.509-4.051c2.048,0,3.509,1.483,3.509,4.051
					s-1.461,4.05-3.509,4.05C271.711,310.863,270.25,309.381,270.25,306.813z M274.645,306.813c0-1.494-0.376-1.959-0.886-1.959
					c-0.51,0-0.886,0.465-0.886,1.959s0.376,1.959,0.886,1.959C274.269,308.772,274.645,308.307,274.645,306.813z"/>
				<path fill="#F69451" d="M282.013,302.939v7.748h-2.611v-5.778h-1.328v-1.97H282.013z"/>
				<path fill="#F69451" d="M283.503,306.813c0-2.568,1.461-4.051,3.509-4.051s3.509,1.483,3.509,4.051s-1.461,4.05-3.509,4.05
					S283.503,309.381,283.503,306.813z M287.898,306.813c0-1.494-0.376-1.959-0.886-1.959s-0.886,0.465-0.886,1.959
					s0.376,1.959,0.886,1.959S287.898,308.307,287.898,306.813z"/>
				<path fill="#F69451" d="M249.331,314.015v7.748h-2.611v-5.778h-1.328v-1.97H249.331z"/>
				<path fill="#F69451" d="M250.97,317.889c0-2.568,1.461-4.051,3.509-4.051c2.048,0,3.509,1.483,3.509,4.051
					s-1.461,4.051-3.509,4.051C252.431,321.94,250.97,320.457,250.97,317.889z M255.365,317.889c0-1.494-0.376-1.959-0.886-1.959
					c-0.51,0-0.886,0.465-0.886,1.959s0.376,1.959,0.886,1.959C254.989,319.848,255.365,319.383,255.365,317.889z"/>
				<path fill="#F69451" d="M259.318,317.889c0-2.568,1.461-4.051,3.509-4.051s3.509,1.483,3.509,4.051s-1.461,4.051-3.509,4.051
					S259.318,320.457,259.318,317.889z M263.713,317.889c0-1.494-0.376-1.959-0.886-1.959s-0.886,0.465-0.886,1.959
					s0.376,1.959,0.886,1.959S263.713,319.383,263.713,317.889z"/>
				<path fill="#F69451" d="M271.233,314.015v7.748h-2.611v-5.778h-1.328v-1.97H271.233z"/>
				<path fill="#F69451" d="M276.546,314.015v7.748h-2.611v-5.778h-1.328v-1.97H276.546z"/>
				<path fill="#F69451" d="M278.185,317.889c0-2.568,1.461-4.051,3.509-4.051s3.509,1.483,3.509,4.051s-1.461,4.051-3.509,4.051
					S278.185,320.457,278.185,317.889z M282.58,317.889c0-1.494-0.376-1.959-0.886-1.959s-0.886,0.465-0.886,1.959
					s0.376,1.959,0.886,1.959S282.58,319.383,282.58,317.889z"/>
				<path fill="#F69451" d="M290.096,314.015v7.748h-2.612v-5.778h-1.328v-1.97H290.096z"/>
				<path fill="#F69451" d="M245.656,328.965c0-2.568,1.461-4.051,3.509-4.051s3.509,1.483,3.509,4.051s-1.461,4.05-3.509,4.05
					S245.656,331.533,245.656,328.965z M250.051,328.965c0-1.494-0.376-1.959-0.886-1.959s-0.886,0.465-0.886,1.959
					s0.376,1.959,0.886,1.959S250.051,330.459,250.051,328.965z"/>
				<path fill="#F69451" d="M257.569,325.091v7.748h-2.611v-5.778h-1.328v-1.97H257.569z"/>
				<path fill="#F69451" d="M262.885,325.091v7.748h-2.612v-5.778h-1.328v-1.97H262.885z"/>
				<path fill="#F69451" d="M268.199,325.091v7.748h-2.612v-5.778h-1.328v-1.97H268.199z"/>
				<path fill="#F69451" d="M273.512,325.091v7.748h-2.611v-5.778h-1.328v-1.97H273.512z"/>
				<path fill="#F69451" d="M275.151,328.965c0-2.568,1.461-4.051,3.509-4.051s3.509,1.483,3.509,4.051s-1.461,4.05-3.509,4.05
					S275.151,331.533,275.151,328.965z M279.546,328.965c0-1.494-0.376-1.959-0.886-1.959s-0.886,0.465-0.886,1.959
					s0.376,1.959,0.886,1.959S279.546,330.459,279.546,328.965z"/>
				<path fill="#F69451" d="M283.501,328.965c0-2.568,1.461-4.051,3.509-4.051c2.048,0,3.509,1.483,3.509,4.051
					s-1.461,4.05-3.509,4.05C284.962,333.016,283.501,331.533,283.501,328.965z M287.896,328.965c0-1.494-0.376-1.959-0.886-1.959
					c-0.51,0-0.886,0.465-0.886,1.959s0.376,1.959,0.886,1.959C287.519,330.924,287.896,330.459,287.896,328.965z"/>
				<path fill="#F69451" d="M249.331,336.166v7.748h-2.611v-5.778h-1.328v-1.97H249.331z"/>
				<path fill="#F69451" d="M251.404,340.04c0-2.568,1.461-4.051,3.509-4.051s3.509,1.483,3.509,4.051s-1.461,4.05-3.509,4.05
					S251.404,342.608,251.404,340.04z M255.799,340.04c0-1.494-0.376-1.959-0.886-1.959c-0.51,0-0.886,0.465-0.886,1.959
					s0.376,1.959,0.886,1.959C255.423,341.999,255.799,341.534,255.799,340.04z"/>
				<path fill="#F69451" d="M260.187,340.04c0-2.568,1.461-4.051,3.509-4.051s3.509,1.483,3.509,4.051s-1.461,4.05-3.509,4.05
					S260.187,342.608,260.187,340.04z M264.581,340.04c0-1.494-0.376-1.959-0.886-1.959c-0.51,0-0.886,0.465-0.886,1.959
					s0.376,1.959,0.886,1.959C264.205,341.999,264.581,341.534,264.581,340.04z"/>
				<path fill="#F69451" d="M272.534,336.166v7.748h-2.612v-5.778h-1.328v-1.97H272.534z"/>
				<path fill="#F69451" d="M274.607,340.04c0-2.568,1.461-4.051,3.509-4.051s3.509,1.483,3.509,4.051s-1.461,4.05-3.509,4.05
					S274.607,342.608,274.607,340.04z M279.002,340.04c0-1.494-0.376-1.959-0.886-1.959s-0.886,0.465-0.886,1.959
					s0.376,1.959,0.886,1.959S279.002,341.534,279.002,340.04z"/>
				<path fill="#F69451" d="M283.389,340.04c0-2.568,1.461-4.051,3.509-4.051s3.509,1.483,3.509,4.051s-1.461,4.05-3.509,4.05
					S283.389,342.608,283.389,340.04z M287.784,340.04c0-1.494-0.376-1.959-0.886-1.959s-0.886,0.465-0.886,1.959
					s0.376,1.959,0.886,1.959S287.784,341.534,287.784,340.04z"/>
				<path fill="#F69451" d="M245.656,351.116c0-2.568,1.461-4.051,3.509-4.051s3.509,1.483,3.509,4.051s-1.461,4.051-3.509,4.051
					S245.656,353.684,245.656,351.116z M250.051,351.116c0-1.494-0.376-1.959-0.886-1.959s-0.886,0.465-0.886,1.959
					s0.376,1.959,0.886,1.959S250.051,352.61,250.051,351.116z"/>
				<path fill="#F69451" d="M254.439,351.116c0-2.568,1.461-4.051,3.509-4.051c2.048,0,3.509,1.483,3.509,4.051
					s-1.461,4.051-3.509,4.051C255.9,355.168,254.439,353.684,254.439,351.116z M258.833,351.116c0-1.494-0.376-1.959-0.886-1.959
					c-0.51,0-0.886,0.465-0.886,1.959s0.376,1.959,0.886,1.959C258.457,353.076,258.833,352.61,258.833,351.116z"/>
				<path fill="#F69451" d="M263.221,351.116c0-2.568,1.461-4.051,3.509-4.051s3.509,1.483,3.509,4.051s-1.461,4.051-3.509,4.051
					S263.221,353.684,263.221,351.116z M267.616,351.116c0-1.494-0.376-1.959-0.886-1.959s-0.886,0.465-0.886,1.959
					s0.376,1.959,0.886,1.959S267.616,352.61,267.616,351.116z"/>
				<path fill="#F69451" d="M272.003,351.116c0-2.568,1.461-4.051,3.509-4.051s3.509,1.483,3.509,4.051s-1.461,4.051-3.509,4.051
					S272.003,353.684,272.003,351.116z M276.398,351.116c0-1.494-0.376-1.959-0.886-1.959s-0.886,0.465-0.886,1.959
					s0.376,1.959,0.886,1.959S276.398,352.61,276.398,351.116z"/>
				<path fill="#F69451" d="M284.35,347.243v7.748h-2.611v-5.778h-1.328v-1.97H284.35z"/>
				<path fill="#F69451" d="M290.098,347.243v7.748h-2.611v-5.778h-1.328v-1.97H290.098z"/>
				<path fill="#F69451" d="M245.656,362.193c0-2.568,1.461-4.051,3.509-4.051s3.509,1.483,3.509,4.051
					c0,2.568-1.461,4.05-3.509,4.05S245.656,364.761,245.656,362.193z M250.051,362.193c0-1.494-0.376-1.959-0.886-1.959
					s-0.886,0.465-0.886,1.959c0,1.494,0.376,1.959,0.886,1.959S250.051,363.687,250.051,362.193z"/>
				<path fill="#F69451" d="M253.854,362.193c0-2.568,1.461-4.051,3.509-4.051c2.048,0,3.509,1.483,3.509,4.051
					c0,2.568-1.461,4.05-3.509,4.05C255.315,366.243,253.854,364.761,253.854,362.193z M258.249,362.193
					c0-1.494-0.376-1.959-0.886-1.959s-0.886,0.465-0.886,1.959c0,1.494,0.376,1.959,0.886,1.959S258.249,363.687,258.249,362.193z"
					/>
				<path fill="#F69451" d="M262.051,362.193c0-2.568,1.461-4.051,3.509-4.051s3.509,1.483,3.509,4.051
					c0,2.568-1.461,4.05-3.509,4.05S262.051,364.761,262.051,362.193z M266.446,362.193c0-1.494-0.376-1.959-0.886-1.959
					s-0.886,0.465-0.886,1.959c0,1.494,0.376,1.959,0.886,1.959S266.446,363.687,266.446,362.193z"/>
				<path fill="#F69451" d="M270.248,362.193c0-2.568,1.461-4.051,3.509-4.051s3.509,1.483,3.509,4.051
					c0,2.568-1.461,4.05-3.509,4.05S270.248,364.761,270.248,362.193z M274.643,362.193c0-1.494-0.376-1.959-0.886-1.959
					s-0.886,0.465-0.886,1.959c0,1.494,0.376,1.959,0.886,1.959S274.643,363.687,274.643,362.193z"/>
				<path fill="#F69451" d="M282.011,358.319v7.748h-2.612v-5.778h-1.328v-1.97H282.011z"/>
				<path fill="#F69451" d="M283.499,362.193c0-2.568,1.461-4.051,3.509-4.051s3.509,1.483,3.509,4.051
					c0,2.568-1.461,4.05-3.509,4.05S283.499,364.761,283.499,362.193z M287.894,362.193c0-1.494-0.376-1.959-0.886-1.959
					c-0.51,0-0.886,0.465-0.886,1.959c0,1.494,0.376,1.959,0.886,1.959C287.517,364.152,287.894,363.687,287.894,362.193z"/>
				<path fill="#F69451" d="M249.331,369.395v7.748h-2.611v-5.778h-1.328v-1.97H249.331z"/>
				<path fill="#F69451" d="M254.608,369.395v7.748h-2.611v-5.778h-1.328v-1.97H254.608z"/>
				<path fill="#F69451" d="M259.885,369.395v7.748h-2.612v-5.778h-1.328v-1.97H259.885z"/>
				<path fill="#F69451" d="M265.162,369.395v7.748h-2.611v-5.778h-1.328v-1.97H265.162z"/>
				<path fill="#F69451" d="M266.766,373.269c0-2.568,1.461-4.051,3.509-4.051c2.048,0,3.509,1.483,3.509,4.051
					c0,2.568-1.461,4.051-3.509,4.051C268.228,377.32,266.766,375.837,266.766,373.269z M271.161,373.269
					c0-1.494-0.376-1.959-0.886-1.959c-0.51,0-0.886,0.465-0.886,1.959c0,1.494,0.376,1.959,0.886,1.959
					C270.785,375.228,271.161,374.763,271.161,373.269z"/>
				<path fill="#F69451" d="M275.078,373.269c0-2.568,1.461-4.051,3.509-4.051c2.048,0,3.509,1.483,3.509,4.051
					c0,2.568-1.461,4.051-3.509,4.051C276.539,377.32,275.078,375.837,275.078,373.269z M279.473,373.269
					c0-1.494-0.376-1.959-0.886-1.959c-0.51,0-0.886,0.465-0.886,1.959c0,1.494,0.376,1.959,0.886,1.959
					C279.096,375.228,279.473,374.763,279.473,373.269z"/>
				<path fill="#F69451" d="M283.389,373.269c0-2.568,1.461-4.051,3.509-4.051s3.509,1.483,3.509,4.051
					c0,2.568-1.461,4.051-3.509,4.051S283.389,375.837,283.389,373.269z M287.784,373.269c0-1.494-0.376-1.959-0.886-1.959
					s-0.886,0.465-0.886,1.959c0,1.494,0.376,1.959,0.886,1.959S287.784,374.763,287.784,373.269z"/>
				<path fill="#F69451" d="M245.656,384.345c0-2.568,1.461-4.051,3.509-4.051s3.509,1.483,3.509,4.051s-1.461,4.05-3.509,4.05
					S245.656,386.913,245.656,384.345z M250.051,384.345c0-1.494-0.376-1.959-0.886-1.959s-0.886,0.465-0.886,1.959
					s0.376,1.959,0.886,1.959S250.051,385.839,250.051,384.345z"/>
				<path fill="#F69451" d="M257.083,380.471v7.748h-2.611v-5.778h-1.328v-1.97H257.083z"/>
				<path fill="#F69451" d="M258.235,384.345c0-2.568,1.461-4.051,3.509-4.051c2.048,0,3.509,1.483,3.509,4.051
					s-1.461,4.05-3.509,4.05C259.696,388.395,258.235,386.913,258.235,384.345z M262.63,384.345c0-1.494-0.376-1.959-0.886-1.959
					c-0.51,0-0.886,0.465-0.886,1.959s0.376,1.959,0.886,1.959C262.254,386.304,262.63,385.839,262.63,384.345z"/>
				<path fill="#F69451" d="M269.658,380.471v7.748h-2.612v-5.778h-1.328v-1.97H269.658z"/>
				<path fill="#F69451" d="M270.81,384.345c0-2.568,1.461-4.051,3.509-4.051s3.509,1.483,3.509,4.051s-1.461,4.05-3.509,4.05
					S270.81,386.913,270.81,384.345z M275.205,384.345c0-1.494-0.376-1.959-0.886-1.959s-0.886,0.465-0.886,1.959
					s0.376,1.959,0.886,1.959S275.205,385.839,275.205,384.345z"/>
				<path fill="#F69451" d="M278.672,384.345c0-2.568,1.461-4.051,3.509-4.051c2.048,0,3.509,1.483,3.509,4.051
					s-1.461,4.05-3.509,4.05C280.133,388.395,278.672,386.913,278.672,384.345z M283.066,384.345c0-1.494-0.376-1.959-0.886-1.959
					c-0.51,0-0.886,0.465-0.886,1.959s0.376,1.959,0.886,1.959C282.69,386.304,283.066,385.839,283.066,384.345z"/>
				<path fill="#F69451" d="M290.098,380.471v7.748h-2.611v-5.778h-1.328v-1.97H290.098z"/>
				<path fill="#F69451" d="M249.331,391.546v7.748h-2.611v-5.778h-1.328v-1.97H249.331z"/>
				<path fill="#F69451" d="M250.646,395.42c0-2.568,1.461-4.051,3.509-4.051s3.509,1.483,3.509,4.051
					c0,2.568-1.461,4.05-3.509,4.05S250.646,397.988,250.646,395.42z M255.041,395.42c0-1.494-0.376-1.959-0.886-1.959
					c-0.51,0-0.886,0.465-0.886,1.959c0,1.494,0.376,1.959,0.886,1.959C254.664,397.379,255.041,396.914,255.041,395.42z"/>
				<path fill="#F69451" d="M262.232,391.546v7.748h-2.611v-5.778h-1.328v-1.97H262.232z"/>
				<path fill="#F69451" d="M263.547,395.42c0-2.568,1.461-4.051,3.509-4.051c2.048,0,3.509,1.483,3.509,4.051
					c0,2.568-1.461,4.05-3.509,4.05C265.008,399.47,263.547,397.988,263.547,395.42z M267.942,395.42
					c0-1.494-0.376-1.959-0.886-1.959c-0.51,0-0.886,0.465-0.886,1.959c0,1.494,0.376,1.959,0.886,1.959
					C267.565,397.379,267.942,396.914,267.942,395.42z"/>
				<path fill="#F69451" d="M275.132,391.546v7.748h-2.611v-5.778h-1.328v-1.97H275.132z"/>
				<path fill="#F69451" d="M280.121,391.546v7.748h-2.611v-5.778h-1.328v-1.97H280.121z"/>
				<path fill="#F69451" d="M285.111,391.546v7.748h-2.611v-5.778h-1.328v-1.97H285.111z"/>
				<path fill="#F69451" d="M290.098,391.546v7.748h-2.611v-5.778h-1.328v-1.97H290.098z"/>
				<path fill="#F69451" d="M245.656,406.496c0-2.568,1.461-4.051,3.509-4.051s3.509,1.483,3.509,4.051s-1.461,4.051-3.509,4.051
					S245.656,409.064,245.656,406.496z M250.051,406.496c0-1.494-0.376-1.959-0.886-1.959s-0.886,0.465-0.886,1.959
					c0,1.494,0.376,1.959,0.886,1.959S250.051,407.99,250.051,406.496z"/>
				<path fill="#F69451" d="M254.46,406.496c0-2.568,1.461-4.051,3.509-4.051s3.509,1.483,3.509,4.051s-1.461,4.051-3.509,4.051
					S254.46,409.064,254.46,406.496z M258.855,406.496c0-1.494-0.376-1.959-0.886-1.959c-0.51,0-0.886,0.465-0.886,1.959
					c0,1.494,0.376,1.959,0.886,1.959C258.478,408.455,258.855,407.99,258.855,406.496z"/>
				<path fill="#F69451" d="M266.83,402.622v7.748h-2.612v-5.778h-1.328v-1.97H266.83z"/>
				<path fill="#F69451" d="M268.924,406.496c0-2.568,1.461-4.051,3.509-4.051s3.509,1.483,3.509,4.051s-1.461,4.051-3.509,4.051
					S268.924,409.064,268.924,406.496z M273.319,406.496c0-1.494-0.376-1.959-0.886-1.959s-0.886,0.465-0.886,1.959
					c0,1.494,0.376,1.959,0.886,1.959S273.319,407.99,273.319,406.496z"/>
				<path fill="#F69451" d="M277.73,406.496c0-2.568,1.461-4.051,3.509-4.051s3.509,1.483,3.509,4.051s-1.461,4.051-3.509,4.051
					S277.73,409.064,277.73,406.496z M282.125,406.496c0-1.494-0.376-1.959-0.886-1.959s-0.886,0.465-0.886,1.959
					c0,1.494,0.376,1.959,0.886,1.959S282.125,407.99,282.125,406.496z"/>
				<path fill="#F69451" d="M290.096,402.622v7.748h-2.612v-5.778h-1.328v-1.97H290.096z"/>
				<path fill="#F69451" d="M245.656,417.572c0-2.568,1.461-4.051,3.509-4.051s3.509,1.483,3.509,4.051s-1.461,4.05-3.509,4.05
					S245.656,420.14,245.656,417.572z M250.051,417.572c0-1.494-0.376-1.959-0.886-1.959s-0.886,0.465-0.886,1.959
					s0.376,1.959,0.886,1.959S250.051,419.066,250.051,417.572z"/>
				<path fill="#F69451" d="M255.087,417.572c0-2.568,1.461-4.051,3.509-4.051c2.048,0,3.509,1.483,3.509,4.051
					s-1.461,4.05-3.509,4.05C256.548,421.623,255.087,420.14,255.087,417.572z M259.482,417.572c0-1.494-0.376-1.959-0.886-1.959
					c-0.51,0-0.886,0.465-0.886,1.959s0.376,1.959,0.886,1.959C259.106,419.531,259.482,419.066,259.482,417.572z"/>
				<path fill="#F69451" d="M264.52,417.572c0-2.568,1.461-4.051,3.509-4.051s3.509,1.483,3.509,4.051s-1.461,4.05-3.509,4.05
					S264.52,420.14,264.52,417.572z M268.915,417.572c0-1.494-0.376-1.959-0.886-1.959s-0.886,0.465-0.886,1.959
					s0.376,1.959,0.886,1.959S268.915,419.066,268.915,417.572z"/>
				<path fill="#F69451" d="M273.95,417.572c0-2.568,1.461-4.051,3.509-4.051s3.509,1.483,3.509,4.051s-1.461,4.05-3.509,4.05
					S273.95,420.14,273.95,417.572z M278.345,417.572c0-1.494-0.376-1.959-0.886-1.959s-0.886,0.465-0.886,1.959
					s0.376,1.959,0.886,1.959S278.345,419.066,278.345,417.572z"/>
				<path fill="#F69451" d="M283.383,417.572c0-2.568,1.461-4.051,3.509-4.051c2.048,0,3.509,1.483,3.509,4.051
					s-1.461,4.05-3.509,4.05C284.844,421.623,283.383,420.14,283.383,417.572z M287.778,417.572c0-1.494-0.376-1.959-0.886-1.959
					c-0.51,0-0.886,0.465-0.886,1.959s0.376,1.959,0.886,1.959C287.402,419.531,287.778,419.066,287.778,417.572z"/>
				<path fill="#F69451" d="M245.656,428.648c0-2.568,1.461-4.051,3.509-4.051s3.509,1.483,3.509,4.051s-1.461,4.051-3.509,4.051
					S245.656,431.217,245.656,428.648z M250.051,428.648c0-1.494-0.376-1.959-0.886-1.959s-0.886,0.465-0.886,1.959
					s0.376,1.959,0.886,1.959S250.051,430.142,250.051,428.648z"/>
				<path fill="#F69451" d="M257.064,424.775v7.748h-2.611v-5.778h-1.328v-1.97H257.064z"/>
				<path fill="#F69451" d="M261.872,424.775v7.748h-2.611v-5.778h-1.328v-1.97H261.872z"/>
				<path fill="#F69451" d="M263.005,428.648c0-2.568,1.461-4.051,3.509-4.051s3.509,1.483,3.509,4.051s-1.461,4.051-3.509,4.051
					S263.005,431.217,263.005,428.648z M267.399,428.648c0-1.494-0.376-1.959-0.886-1.959s-0.886,0.465-0.886,1.959
					s0.376,1.959,0.886,1.959S267.399,430.142,267.399,428.648z"/>
				<path fill="#F69451" d="M270.847,428.648c0-2.568,1.461-4.051,3.509-4.051s3.509,1.483,3.509,4.051s-1.461,4.051-3.509,4.051
					S270.847,431.217,270.847,428.648z M275.242,428.648c0-1.494-0.376-1.959-0.886-1.959s-0.886,0.465-0.886,1.959
					s0.376,1.959,0.886,1.959S275.242,430.142,275.242,428.648z"/>
				<path fill="#F69451" d="M282.25,424.775v7.748h-2.611v-5.778h-1.328v-1.97H282.25z"/>
				<path fill="#F69451" d="M283.383,428.648c0-2.568,1.461-4.051,3.509-4.051c2.048,0,3.509,1.483,3.509,4.051
					s-1.461,4.051-3.509,4.051C284.844,432.7,283.383,431.217,283.383,428.648z M287.778,428.648c0-1.494-0.376-1.959-0.886-1.959
					c-0.51,0-0.886,0.465-0.886,1.959s0.376,1.959,0.886,1.959C287.402,430.608,287.778,430.142,287.778,428.648z"/>
				<path fill="#F69451" d="M245.656,439.724c0-2.568,1.461-4.051,3.509-4.051s3.509,1.483,3.509,4.051s-1.461,4.051-3.509,4.051
					S245.656,442.292,245.656,439.724z M250.051,439.724c0-1.494-0.376-1.959-0.886-1.959s-0.886,0.465-0.886,1.959
					s0.376,1.959,0.886,1.959S250.051,441.218,250.051,439.724z"/>
				<path fill="#F69451" d="M254.439,439.724c0-2.568,1.461-4.051,3.509-4.051c2.048,0,3.509,1.483,3.509,4.051
					s-1.461,4.051-3.509,4.051C255.9,443.775,254.439,442.292,254.439,439.724z M258.833,439.724c0-1.494-0.376-1.959-0.886-1.959
					c-0.51,0-0.886,0.465-0.886,1.959s0.376,1.959,0.886,1.959C258.457,441.683,258.833,441.218,258.833,439.724z"/>
				<path fill="#F69451" d="M266.784,435.85v7.748h-2.612v-5.778h-1.328v-1.97H266.784z"/>
				<path fill="#F69451" d="M272.532,435.85v7.748h-2.611v-5.778h-1.328v-1.97H272.532z"/>
				<path fill="#F69451" d="M274.603,439.724c0-2.568,1.461-4.051,3.509-4.051s3.509,1.483,3.509,4.051s-1.461,4.051-3.509,4.051
					S274.603,442.292,274.603,439.724z M278.998,439.724c0-1.494-0.376-1.959-0.886-1.959c-0.51,0-0.886,0.465-0.886,1.959
					s0.376,1.959,0.886,1.959C278.621,441.683,278.998,441.218,278.998,439.724z"/>
				<path fill="#F69451" d="M283.385,439.724c0-2.568,1.461-4.051,3.509-4.051s3.509,1.483,3.509,4.051s-1.461,4.051-3.509,4.051
					S283.385,442.292,283.385,439.724z M287.78,439.724c0-1.494-0.376-1.959-0.886-1.959s-0.886,0.465-0.886,1.959
					s0.376,1.959,0.886,1.959S287.78,441.218,287.78,439.724z"/>
				<path fill="#F69451" d="M245.656,450.8c0-2.568,1.461-4.051,3.509-4.051s3.509,1.483,3.509,4.051s-1.461,4.05-3.509,4.05
					S245.656,453.368,245.656,450.8z M250.051,450.8c0-1.494-0.376-1.959-0.886-1.959s-0.886,0.465-0.886,1.959
					s0.376,1.959,0.886,1.959S250.051,452.294,250.051,450.8z"/>
				<path fill="#F69451" d="M254.004,450.8c0-2.568,1.461-4.051,3.509-4.051s3.509,1.483,3.509,4.051s-1.461,4.05-3.509,4.05
					S254.004,453.368,254.004,450.8z M258.399,450.8c0-1.494-0.376-1.959-0.886-1.959s-0.886,0.465-0.886,1.959
					s0.376,1.959,0.886,1.959S258.399,452.294,258.399,450.8z"/>
				<path fill="#F69451" d="M265.917,446.926v7.748h-2.612v-5.778h-1.328v-1.97H265.917z"/>
				<path fill="#F69451" d="M267.556,450.8c0-2.568,1.461-4.051,3.509-4.051c2.048,0,3.509,1.483,3.509,4.051
					s-1.461,4.05-3.509,4.05C269.017,454.85,267.556,453.368,267.556,450.8z M271.951,450.8c0-1.494-0.376-1.959-0.886-1.959
					c-0.51,0-0.886,0.465-0.886,1.959s0.376,1.959,0.886,1.959C271.574,452.759,271.951,452.294,271.951,450.8z"/>
				<path fill="#F69451" d="M279.467,446.926v7.748h-2.611v-5.778h-1.328v-1.97H279.467z"/>
				<path fill="#F69451" d="M284.78,446.926v7.748h-2.611v-5.778h-1.328v-1.97H284.78z"/>
				<path fill="#F69451" d="M290.094,446.926v7.748h-2.611v-5.778h-1.328v-1.97H290.094z"/>
				<path fill="#F69451" d="M248.532,461.876c0-2.568,1.461-4.051,3.509-4.051s3.509,1.483,3.509,4.051
					c0,2.568-1.461,4.051-3.509,4.051S248.532,464.444,248.532,461.876z M252.927,461.876c0-1.494-0.376-1.959-0.886-1.959
					c-0.51,0-0.886,0.465-0.886,1.959c0,1.494,0.376,1.959,0.886,1.959C252.551,463.835,252.927,463.37,252.927,461.876z"/>
				<path fill="#F69451" d="M260.905,458.002v7.748h-2.611v-5.778h-1.328v-1.97H260.905z"/>
				<path fill="#F69451" d="M263.003,461.876c0-2.568,1.461-4.051,3.509-4.051s3.509,1.483,3.509,4.051
					c0,2.568-1.461,4.051-3.509,4.051S263.003,464.444,263.003,461.876z M267.398,461.876c0-1.494-0.376-1.959-0.886-1.959
					s-0.886,0.465-0.886,1.959c0,1.494,0.376,1.959,0.886,1.959S267.398,463.37,267.398,461.876z"/>
				<path fill="#F69451" d="M271.81,461.876c0-2.568,1.461-4.051,3.509-4.051s3.509,1.483,3.509,4.051
					c0,2.568-1.461,4.051-3.509,4.051S271.81,464.444,271.81,461.876z M276.205,461.876c0-1.494-0.376-1.959-0.886-1.959
					s-0.886,0.465-0.886,1.959c0,1.494,0.376,1.959,0.886,1.959S276.205,463.37,276.205,461.876z"/>
				<path fill="#F69451" d="M280.619,461.876c0-2.568,1.461-4.051,3.509-4.051s3.509,1.483,3.509,4.051
					c0,2.568-1.461,4.051-3.509,4.051S280.619,464.444,280.619,461.876z M285.014,461.876c0-1.494-0.376-1.959-0.886-1.959
					c-0.51,0-0.886,0.465-0.886,1.959c0,1.494,0.376,1.959,0.886,1.959C284.638,463.835,285.014,463.37,285.014,461.876z"/>
				<path fill="#F69451" d="M267.031,469.078v7.748h-2.611v-5.778h-1.328v-1.97H267.031z"/>
				<path fill="#F69451" d="M272.391,469.078v7.748h-2.611v-5.778h-1.328v-1.97H272.391z"/>
			</g>
		</g>
	</g>
</g>
</svg>
